<?xml version="1.0" standalone="no"?>
<!DOCTYPE svg PUBLIC "-//W3C//DTD SVG 1.1//EN" "http://www.w3.org/Graphics/SVG/1.1/DTD/svg11.dtd" >
<!--
2013-9-30: Created.
-->
<svg>
<metadata>
Created by iconfont
</metadata>
<defs>

<font id="iconfont" horiz-adv-x="1024" >
  <font-face
    font-family="iconfont"
    font-weight="500"
    font-stretch="normal"
    units-per-em="1024"
    ascent="896"
    descent="-128"
  />
    <missing-glyph />
    
    <glyph glyph-name="xitong" unicode="&#58880;" d="M932.497495 716.837504c-14.09195 14.053064-32.82357 21.792329-52.743248 21.792329-160.710238 0-311.412542 132.151809-312.899406 133.471874-13.673417 12.409634-31.441083 19.244296-50.02637 19.244296-18.399045 0-36.132942-6.78452-49.929156-19.102057-0.38067-0.338714-38.763862-34.235732-96.928586-67.585281-52.535517-30.122041-132.652206-66.028832-215.986169-66.028832-41.180911 0-74.683956-33.370015-74.683956-74.386174l0-218.717374c0-198.798718 118.086465-365.582279 394.850883-557.683459 12.514012-8.695033 27.27111-13.291724 42.676985-13.291724 15.409968 0 30.16502 4.596691 42.670845 13.291724C836.263733 79.946053 954.349175 246.730637 954.349175 445.527308L954.349175 664.245705C954.350199 684.107055 946.590468 702.78444 932.497495 716.837504zM877.707634 445.528332c0-120.378671-42.910299-273.204335-360.879164-494.098281C198.92919 172.338323 156.030148 325.157847 156.030148 445.528332L156.030148 662.205233c43.726897 0.24457 89.77056 8.302083 136.888693 23.960715 38.246069 12.709463 77.286224 30.42801 116.034736 52.66343 59.390645 34.08019 100.050694 68.589145 107.872846 75.40641 7.818059-6.817266 48.459688-41.326221 107.850333-75.40641 38.748513-22.23542 77.793784-39.952944 116.055203-52.66343 47.13553-15.658631 93.208868-23.716144 136.973628-23.960715L877.707634 445.528332zM704.678836 342.955188l-26.700105 15.557324c1.426489 9.017374 2.122337 17.401322 2.122337 25.487487 0 8.02886-0.697895 16.410762-2.127454 25.484418l26.699082 15.546068c16.399505 9.538237 22.048155 30.750351 12.588713 47.285956l-26.729781 46.694485c-6.126534 10.698666-17.559934 17.344017-29.839609 17.344017-6.021134 0-11.971659-1.610684-17.21201-4.65809l-26.978445-15.708773c-13.631462 11.027148-28.170596 19.640316-43.346227 25.678846l0 17.568121c0 19.09694-15.439644 34.633798-34.417881 34.633798l-53.472865 0c-18.971074 0-34.404578-15.536858-34.404578-34.633798l0-17.5804c-15.180747-6.03546-29.724998-14.649652-43.360554-25.679869l-26.981515 15.71082c-5.237281 3.046383-11.186783 4.657067-17.204847 4.657067-12.273535 0-23.703865-6.64535-29.829376-17.34197l-26.744107-46.681182c-9.463536-16.525372-3.816932-37.732369 12.583596-47.272653l26.697035-15.545044c-1.426489-9.016351-2.122337-17.398252-2.122337-25.486464 0-8.027837 0.697895-16.409738 2.127454-25.485441l-26.693965-15.554254c-16.411785-9.529027-22.060435-30.730908-12.592806-47.264467l26.742061-46.691415c6.121418-10.698666 17.554818-17.344017 29.837562-17.342993 6.018064 0 11.965519 1.608637 17.201777 4.65502l26.976398 15.708773c13.620206-11.028171 28.16548-19.645432 43.3626-25.690102l0-17.582447c0-19.09694 15.434527-34.634822 34.404578-34.634822l53.472865 0c18.978237 0 34.417881 15.537881 34.417881 34.634822l0 17.571191c15.20019 6.054903 29.740348 14.671141 43.348274 25.689079l26.979468-15.71082c5.233188-3.044336 11.181667-4.653997 17.199731-4.653997 12.280698 0 23.717168 6.644327 29.849842 17.34197l26.727735 46.690392C726.728014 312.210977 721.081411 333.412858 704.678836 342.955188zM486.813876 259.446239c-26.423813 5.405103-50.941206 19.715017-69.035306 40.291658l-4.168949 4.742001-42.586934-24.793686c-0.880043-0.51063-1.831718-0.77055-2.827395-0.77055-2.049682 0-3.888564 1.076518-4.922103 2.882654l-13.372565 23.347754c-1.598404 2.788509-0.657986 6.360871 2.095731 7.963369l42.671868 24.837688-1.963725 5.915733c-4.454452 13.416568-6.712889 26.921139-6.712889 40.136116 0 13.169951 2.263553 26.680663 6.728238 40.155559l1.959631 5.913687-42.680055 24.834618c-2.75167 1.601474-3.690042 5.177929-2.093684 7.969509l13.355169 23.341614c1.019213 1.777483 2.911306 2.88163 4.938476 2.88163 0.991584 0 1.935072-0.25685 2.805906-0.76441l42.608423-24.813129 4.168949 4.745071c18.075681 20.570501 42.583864 34.883485 69.010747 40.304961l6.132674 1.257643 0 35.929304c0 3.200902 2.555196 5.804193 5.696746 5.804193l26.730805 0c3.140527 0 5.695722-2.603291 5.695722-5.804193l0-35.932374 6.136767-1.255597c26.424836-5.406127 50.942229-19.715017 69.035306-40.292682l4.168949-4.740978 42.606377 24.796756c0.873903 0.509606 1.821485 0.76748 2.816139 0.76748 2.053776 0 3.895727-1.076518 4.928243-2.882654l13.368472-23.342638c1.599428-2.794649 0.659009-6.381337-2.076288-7.982812L629.346103 430.054919l1.962701-5.915733c4.455475-13.430894 6.713912-26.939559 6.713912-40.152489 0-13.202697-2.258437-26.708292-6.713912-40.139186l-1.962701-5.915733 42.683125-24.835641c2.750647-1.601474 3.690042-5.177929 2.095731-7.965415l-13.373589-23.350824c-1.031493-1.803066-2.873444-2.87856-4.926196-2.87856-0.99363 0-1.940189 0.258896-2.815115 0.76748l-42.591027 24.796756-4.168949-4.738931c-18.107403-20.580734-42.62582-34.891671-69.037353-40.294728l-6.136767-1.255597 0-35.932374c0-3.200902-2.555196-5.804193-5.696746-5.804193l-26.729781 0c-3.14155 0-5.696746 2.603291-5.696746 5.804193l0 35.9467L486.813876 259.446239zM586.525855 384c0 41.395806-33.429367 75.072813-74.520227 75.072813-41.089837 0-74.519204-33.67803-74.519204-75.072813 0-41.394782 33.428344-75.071789 74.519204-75.071789C553.081139 308.928211 586.511529 342.604194 586.525855 384zM512.005628 416.764218c17.880229 0 32.426527-14.697747 32.426527-32.764218 0-18.065448-14.547321-32.764218-32.426527-32.764218-17.879206 0-32.425504 14.697747-32.425504 32.764218C479.580125 402.066471 494.126422 416.764218 512.005628 416.764218z"  horiz-adv-x="1024" />

    
    <glyph glyph-name="kpi" unicode="&#58888;" d="M484.22 46.25999999999999L382.94 46.25999999999999 209.96 369.12 108.62 234.12 108.62 46.25999999999999 32 46.25999999999999 32 721.6800000000001 108.62 721.6800000000001 108.62 362.64 368.12 721.6800000000001 469.4 721.6800000000001 256.88 435.06ZM701.84 300L573.32 300l0-253.74L494.3 46.25999999999999 494.3 721.6800000000001l214.98 0c113.7-6.54 173.76-74.7 180.42-204.24C888.08 374.58000000000004 825.44 302.22 701.84 300M692 639.3L573.32 639.3l0-257.04L692 382.26c75.72 2.22 114.48 46.2 116.1 131.82C804.86 595.3199999999999 766.1 637.0799999999999 692 639.3M915.38 721.6800000000001l76.62 0 0-675.42-76.62 0 0 675.42Z"  horiz-adv-x="1024" />

    
    <glyph glyph-name="libra" unicode="&#59212;" d="M588.1088 405.6576c12.81024-109.23008 105.63072-193.9968 218.30144-193.9968s205.4912 84.76672 218.30144 193.9968c0 0-0.35328 0-0.3584 0 0.52224 4.92032-0.37376 10.04032-2.87744 14.73024l-189.68064 355.2256c-1.65376 6.85568-6.02112 13.02528-12.73344 16.60928-2.29888 1.2288-4.70528 1.9456-7.13728 2.42176-0.2048 0.04608-0.41472 0.0768-0.61952 0.11776-1.17248 0.19968-2.33472 0.3328-3.5072 0.36864-0.3584 0.01536-0.6912 0.11264-1.0496 0.11264l-269.2864 0 0 38.63552c0 17.3312-11.46368 31.38048-25.6 31.38048s-25.6-14.04928-25.6-31.38048l0-38.63552L216.97024 795.24352c-0.35328 0-0.68096-0.09216-1.02912-0.10752-0.31232-0.0256-0.62464-0.06144-0.93696-0.09728-5.10464-0.43008-9.72288-2.46784-13.4656-5.67296-0.04096-0.03584-0.0768-0.06656-0.11776-0.1024-0.9984-0.86528-1.92512-1.792-2.78016-2.816-0.50176-0.57344-0.95744-1.16736-1.40288-1.77664-0.31232-0.45056-0.61952-0.90112-0.90624-1.37216-1.5104-2.3808-2.6112-4.95616-3.27168-7.67488L3.3792 420.38272c-2.24256-4.20352-3.09248-8.74496-2.8928-13.184C0.4608 406.6816 0.3584 406.18496 0.3584 405.6576l-0.35328 0c12.81024-109.23008 105.63072-193.9968 218.30144-193.9968s205.4912 84.76672 218.30144 193.9968c0 0-0.35328 0-0.3584 0 0.52224 4.92032-0.37376 10.04032-2.87744 14.73024L260.54656 744.04352l225.7152 0 0-790.45632L216.97024-46.4128c-13.51168 0-24.46848-11.46368-24.46848-25.6s10.9568-25.6 24.46848-25.6l589.78304 0c13.51168 0 24.46848 11.46368 24.46848 25.6 0 14.14144-10.9568 25.6-24.4736 25.6l-269.2864 0L537.46176 744.04352l226.85184 0-172.8256-323.65568c-2.24256-4.20352-3.0976-8.74496-2.89792-13.184-0.0256-0.52224-0.128-1.01888-0.128-1.54624L588.1088 405.6576zM218.30656 262.8608c-75.19744 0-138.85952 49.22368-160.62464 117.1968l265.5488 0c11.60704 0 21.02272 11.46368 21.02272 25.6 0 14.14144-9.41056 25.6-21.02272 25.6l-256 0 151.1424 283.0592 166.17472-311.1936C371.04128 323.50208 301.7728 262.8608 218.30656 262.8608zM806.41024 262.8608c-75.19744 0-138.85952 49.22368-160.62464 117.1968l267.8016 0c11.68896 0 21.16608 11.46368 21.16608 25.6 0 14.14144-9.47712 25.6-21.16608 25.6l-258.25792 0 151.14752 283.0592 166.1696-311.19872C959.14496 323.50208 889.87648 262.8608 806.41024 262.8608z"  horiz-adv-x="1025" />

    
    <glyph glyph-name="ship" unicode="&#59015;" d="M1005.824-19.008c-10.816 5.312-20.8 10.944-29.504 17.344l-5.12 3.008c-32.448 15.424-68.8 24.64-107.52 24.64-0.384 0-0.768-0.064-1.152-0.064l113.088 286.656c25.408 37.568 22.144 88.768-10.112 122.752-4.608 4.8-9.856 8.896-15.616 12.096L864 494.528 864 676.352c0 35.904-28.672 64.96-64 64.96L768 741.312 768 806.336c0 35.904-28.608 64.96-64 65.024L320 871.36c-35.328-0.064-64-29.12-64-65.024l0-65.024L224 741.312c-35.328 0-64-29.056-64-64.96l0-181.824L74.176 447.36C68.352 444.16 63.104 440.064 58.56 435.264 26.304 401.344 22.976 350.144 48.512 312.512l135.232-342.912c1.152-2.944 2.752-5.44 4.608-7.808-40.32 0.832-77.312 14.144-107.968 36.48l-5.12 3.008c-11.328 5.376-22.656 9.472-33.728 12.928-16.896 5.312-34.816-4.288-40.064-21.44-5.184-17.152 4.288-35.328 21.184-40.64 8.64-2.752 16.64-5.696 23.936-9.088 41.216-29.056 91.392-46.464 145.472-46.464 37.76 0 73.344 8.768 105.216 23.488l5.568 3.328c31.872 23.552 70.592 37.504 112.832 37.504 27.968 0 54.336-6.464 78.656-17.664 41.28-29.12 91.52-46.592 145.728-46.592 37.76 0 73.344 8.768 105.28 23.488l5.632 3.328c31.808 23.552 70.528 37.504 112.768 37.504 27.968 0 54.272-6.464 78.528-17.664 11.712-8.192 23.936-15.04 35.968-20.928 15.936-7.744 35.072-0.96 42.688 15.296C1028.48-46.144 1021.76-26.752 1005.824-19.008L1005.824-19.008 1005.824-19.008zM224 676.352 256 676.352c35.328 0 64 29.056 64 64.96L320 806.336l384 0 0-65.024c0-35.904 28.608-64.96 64-64.96l32 0 0-146.624-230.4 126.592C553.216 669.248 532.864 676.608 512 676.608c-20.864 0-41.216-7.36-57.6-20.352L224 529.664 224 676.352 224 676.352 224 676.352zM268.8-21.504c-8.448-3.776-17.088-6.976-25.984-9.536 3.264 7.68 3.584 16.576 0.32 24.896L104.64 344.96c-11.84 12.48-11.84 32.768 0 45.248L480 596.416l0-579.136c-20.48 5.568-42.048 8.704-64.32 8.704C360.96 25.984 310.272 8.128 268.8-21.504L268.8-21.504 268.8-21.504zM716.8-21.504c-23.808-10.624-49.536-16.768-76.8-16.768-35.072 0-67.712 9.728-96 26.432L544 596.416l375.36-206.272c11.84-12.48 11.84-32.768 0-45.248l-130.368-330.496C762.88 6.272 738.56-5.952 716.8-21.504L716.8-21.504 716.8-21.504zM716.8-21.504"  horiz-adv-x="1025" />

    
    <glyph glyph-name="tingzhi" unicode="&#58966;" d="M601.043478 194.782609l-178.086957 0c-55.229217 0-100.173913 44.944696-100.173913 100.173913l0 178.086957c0 55.229217 44.944696 100.173913 100.173913 100.173913l178.086957 0c55.229217 0 100.173913-44.944696 100.173913-100.173913l0-178.086957C701.217391 239.727304 656.272696 194.782609 601.043478 194.782609zM422.956522 506.434783c-18.409739 0-33.391304-14.981565-33.391304-33.391304l0-178.086957c0-18.409739 14.981565-33.391304 33.391304-33.391304l178.086957 0c18.409739 0 33.391304 14.981565 33.391304 33.391304l0 178.086957c0 18.409739-14.981565 33.391304-33.391304 33.391304L422.956522 506.434783zM512 806.956522c233.22713 0 422.956522-189.729391 422.956522-422.956522s-189.729391-422.956522-422.956522-422.956522S89.043478 150.77287 89.043478 384 278.77287 806.956522 512 806.956522M512 873.73913C241.552696 873.73913 22.26087 654.469565 22.26087 384s219.291826-489.73913 489.73913-489.73913 489.73913 219.269565 489.73913 489.73913S782.447304 873.73913 512 873.73913L512 873.73913z"  horiz-adv-x="1024" />

    
    <glyph glyph-name="rili" unicode="&#58882;" d="M1018.14583751 11.263746269999956V687.59924963c0 74.46598315-60.53053554 135.11760555-135.20026965 135.11760442h-67.63622855V876.38736327c0 7.64941881-6.41992249 13.94243357-14.33945771 13.94243356h-38.93402624c-8.09883648 0-14.33829376-6.24178631-14.33829376-13.94243356v-53.67050922h-473.28593806V876.38736327c0 7.64941881-6.41992249 13.94243357-14.33829376 13.94243356h-38.93519133c-8.09883648 0-14.33829376-6.24178631-14.33829376-13.94243356v-53.67050922H139.16361728c-74.7954779 0-135.20026965-60.49444181-135.20027079-135.11760442v-676.33433941c0-74.46598315 60.53053554-135.11760555 135.20027079-135.11760441h743.78311453c74.79431395-0.00116395 135.19910571 60.49327787 135.1991057 135.11644046zM71.57512419 687.59924963c0 37.32613461 30.17736306 67.5058267 67.587328 67.50582671h67.63622856v-53.67050923c0-7.64941881 6.41992249-13.94243357 14.33829376-13.94243242h38.93519018c8.09883648 0 14.33829376 6.24178631 14.33829376 13.94243242v53.67050923h473.28477526v-53.67050923c0-7.64941881 6.41992249-13.94243357 14.33829262-13.94243242h38.93402738c8.10000043 0 14.33945771 6.24178631 14.3394577 13.94243242v53.67050923h67.63622856c37.27024925 0 67.587328-30.32406471 67.58732686-67.50582671v-67.71889379H71.57512419v67.71889379z m811.37044367-743.84016611H139.16245219c-37.27024925 0-67.587328 30.32406471-67.587328 67.5058267V552.2685781299999h878.95777167v-541.00366791c0-37.3272997-30.17736306-67.5058267-67.587328-67.5058267zM477.23414983 40.90669852999997h69.85770326v391.20313685h-51.97413149c-2.23544661-11.92820281-6.98693405-21.98771257-14.25213554-30.17852701-7.26520149-8.19896547-16.02419257-14.90646926-26.26649657-20.11901838-10.25161785-5.22186297-21.70828117-8.94178645-34.36998997-11.17723306-12.6698587-2.23544661-25.70763491-3.35316992-39.12031346-3.35316992v-50.29638144h96.12419983v-276.07880704z"  horiz-adv-x="1024" />

    
    <glyph glyph-name="time" unicode="&#59089;" d="M1005 384c0 66.657-13.065 131.33-38.832 192.223-24.889 58.819-60.518 111.653-105.896 157.034-45.38 45.383-98.214 81.015-157.032 105.906C642.343 864.934 577.664 878 511 878c-66.656 0-131.33-13.066-192.224-38.837-58.818-24.892-111.652-60.523-157.034-105.906-45.382-45.382-81.014-98.216-105.905-157.034C30.066 515.329 17 450.655 17 384c0-66.666 13.066-131.345 38.836-192.241 24.892-58.818 60.522-111.651 105.905-157.032 45.381-45.379 98.214-81.006 157.034-105.896C379.668-96.935 444.342-110 511-110c66.666 0 131.345 13.065 192.24 38.831 58.819 24.889 111.652 60.517 157.031 105.896s81.008 98.213 105.896 157.032C991.935 252.654 1005 317.334 1005 384z m-91.363-170.158c-21.994-52.043-53.485-98.77-93.599-138.883s-86.84-71.604-138.882-93.6C627.278-41.411 570.03-52.956 511-52.956c-59.031 0-116.28 11.545-170.158 34.315-52.042 21.995-98.77 53.486-138.883 93.6-40.113 40.113-71.604 86.84-93.599 138.883C85.589 267.72 74.044 324.97 74.044 384c0 59.03 11.545 116.278 34.316 170.156 21.995 52.042 53.486 98.769 93.599 138.882 40.114 40.113 86.841 71.604 138.883 93.599C394.72 809.407 451.969 820.952 511 820.952c59.03 0 116.278-11.545 170.156-34.315 52.042-21.995 98.769-53.486 138.882-93.599s71.604-86.84 93.599-138.882c22.77-53.878 34.315-111.126 34.315-170.156s-11.545-116.28-34.315-170.158zM759.979 380.976c0 14.641-12.368 27.01-27.009 27.01H534.985V712.378c0 14.641-12.369 27.01-27.01 27.01h-4.005c-15.146 0-27.01-11.864-27.01-27.01v-335.409c0-14.64 12.369-27.009 27.01-27.009h229c14.641 0 27.009 12.369 27.009 27.009v4.007z"  horiz-adv-x="1024" />

    
    <glyph glyph-name="parcel" unicode="&#58884;" d="M97.74775308641983-30.252246913580052V881.1026962962962h-82.85044938271605v-994.2053925925926h994.2053925925926v82.85044938271605zM633.1687822222224 218.29910123456796l-238.1950419753086 209.19738469135802L236.5222558024691 228.65540740740744l-65.24472888888889 51.78153086419752 213.33990716049388 267.19269925925926 239.23067259259258-211.2686459259259L945.9292286419754 720.5799506172839l63.17346765432097-52.81716148148148z"  horiz-adv-x="1024" />

    
    <glyph glyph-name="guize" unicode="&#58881;" d="M961.312 473.13706667c-0.0780192 35.18656-0.11702827 70.41216-0.0780192 105.63776v1.24830933c0.03900907 2.73066667-0.03900907 5.42232533-0.03900907 8.152992 0 39.67264 0.0780192 79.38442667-0.0780192 119.05706667-0.11702827 0.50712427-0.39009493 0.93622827-0.5071232 1.40434133-1.32632533 17.51530667-8.42605867 34.91349333-21.65024 46.03125333-5.7344 4.60312533-11.03968 10.18148267-17.94442666 12.99018667-18.91957333 10.02545067-38.61941333 18.45152-57.92917334 27.81376-43.26154667 19.62176-88.35658667 33.86026667-134.03626666 45.75818667-1.95047467 0.54613333-3.86194133 1.32632533-5.851424 1.87245866-4.40807467 1.24830933-8.933184 2.02849067-13.38026667 3.159776a1405.70666667 1405.70666667 0 0 1-18.41248 4.36906667c-10.10346667 2.340576-20.16789333 4.837184-30.34944 6.74865067-4.29105067 0.93622827-8.62110933 1.98948267-12.91210667 2.88669866-7.87992533 1.01424747-15.79882667 1.87245867-23.71776 2.84769067a913.7984 913.7984 0 0 1-30.89557333 3.70589867c-5.57835733 0.5851424-11.19573333 0.8972192-16.77408 1.40434133-10.29851733 0.8192-20.59701333 1.79444267-30.93450667 2.26254933-5.07124267 0.31207573-10.10346667 0.93622827-15.17472 1.09226667-6.20251733 0.0780192-12.40501333-0.31207573-18.64650666-0.390096-6.24152533 0.0780192-12.44405333 0.42910507-18.68554667 0.390096-5.07124267-0.19504747-10.10346667-0.8192-15.17472-1.09226667-10.33752533-0.46811413-20.63605333-1.44334933-30.93450667-2.26254933-5.57835733-0.50712427-11.19573333-0.8192-16.77408-1.40434133-10.33752533-1.01424747-20.59701333-2.26254933-30.89557333-3.70589867-7.91893333-0.9752384-15.83786667-1.83345067-23.71776-2.84769067-4.33005867-0.8972192-8.62110933-1.95047467-12.91210667-2.88669866-10.18148267-1.91146667-20.20693333-4.40807467-30.3104-6.74865067l-18.49056-4.36906667c-4.44708267-1.17028267-8.933184-1.91146667-13.38026666-3.159776-1.95047467-0.50712427-3.86194133-1.28731733-5.812416-1.87245866-45.64117333-11.89792-90.77514667-26.09738667-133.99786667-45.75818667-19.30976-9.36228267-39.00949333-17.78837333-57.96810667-27.77482667-6.90468267-2.80868267-12.21002667-8.38705067-17.94442666-12.99018666-13.22421333-11.15669333-20.32394667-28.55498667-21.65024-46.03125334-0.11702827-0.50712427-0.39009493-0.9752384-0.50712427-1.44334933-0.1560384-39.67264-0.11702827-79.34538667-0.07801813-119.05706667l-0.03901014-8.152992v-1.24830933c0-35.2256 0-70.41216-0.0780192-105.63776-0.2340576-5.7344 0.62415253-11.39082667 2.14552534-16.85216 1.20929067-51.41450667 3.12075733-102.86816 9.36228266-153.89226667 2.14552533-23.24970667 11.78090667-44.50986667 20.24597334-65.69205333 19.62176-46.85045333 50.63434667-86.87424 82.11509333-125.41546667 25.78528-29.76426667 54.8864-56.21269333 85.15776-80.82773333 60.11370667-48.29376 126.03946667-88.23957333 194.61866667-121.59253333 11.27370667-5.11025067 22.31349333-12.60010667 35.06954666-12.44405334h41.15509334c12.75616-0.1560384 23.79584 7.333792 35.06954666 12.44405334 68.61770667 33.35317333 134.50453333 73.29888 194.61866667 121.59253333 30.27136 24.61504 59.41152 51.10250667 85.15776 80.82773333 31.44170667 38.5024 62.45429333 78.56522667 82.11509333 125.41546667 8.50407467 21.18218667 18.10037333 42.44234667 20.24597334 65.69205333 6.28053333 51.02442667 8.152992 102.47797333 9.36228266 153.89226667 1.6384 5.46133333 2.4576 11.11776 2.22354134 16.85216Zm-558.22613333-441.5488c-60.46474667 36.90304-118.23786667 80.12554667-166.02453334 134.1536-29.14016 35.06954667-58.39722667 71.93354667-73.92309333 116.17066666-3.978976 11.39082667-9.0112 22.54752-10.22049067 34.71850667-5.38331733 42.67637333-5.96845867 85.70389333-7.72388266 128.6144a6487.75466667 6487.75466667 0 0 0-1.32632534 255.51253333c15.60384 7.411808 31.59776 13.96544 46.81141334 22.27445334 7.64586667 3.54986667 15.48682667 6.514592 23.24970666 9.713376 20.67509333 7.95794133 41.50613333 15.52576 62.49322667 22.62549333a1216.93866667 1216.93866667 0 0 0 87.34229333 22.74250667c16.07189333 3.51085867 32.26090667 7.3728 48.68384 8.894176 21.72832 2.73066667 43.49557333 5.46133333 65.34090667 6.90468266 11.39082667 0.54613333 22.78154667 0.27306667 34.21130667 0.27306667 11.42976 0.03900907 22.82058667 0.27306667 34.21130666-0.27306667 21.84533333-1.44334933 43.57365333-4.174016 65.34090667-6.90468266 16.42304-1.48235733 32.57290667-5.38331733 48.68384-8.894176 29.25717333-6.631616 58.51424-13.9264 87.30336-22.74250667 20.98709333-7.09973333 41.81824-14.66762667 62.49322667-22.62549333 7.76289067-3.198784 15.60384-6.16350933 23.24970666-9.713376 15.21376-8.309024 31.20757333-14.86261333 46.81141334-22.27445334 1.560384-85.15776 0.46811413-170.35413333-1.32632534-255.51253333-1.755424-42.94944-2.340576-85.97696-7.72388266-128.6144-1.20929067-12.17098667-6.20251733-23.32768-10.22049067-34.71850667-15.52576-44.27584-44.78293333-81.1008-73.92309333-116.17066666-47.78666667-54.0672-105.59882667-97.25077333-166.02453334-134.1536-23.71776-14.7456-48.37184-27.8528-73.22090666-40.45290667-9.16724267-4.29105067-18.21749333-8.77714133-27.54069334-12.63904-1.32632533-0.19504747-2.69165867-0.42910507-4.056992-0.46811413l-4.096-0.1560384-4.135008 0.1560384c-1.36533333 0.03900907-2.69165867 0.27306667-4.056992 0.46811413-9.36228267 3.86194133-18.41248 8.38705067-27.57973333 12.67808a941.76746667 941.76746667 0 0 0-73.10389333 40.41386667ZM292.41493333 170.22826667000004c-13.73130667-14.12149333-24.88810667-21.84533333-33.39210666-23.09365334-8.54308267-1.24830933-17.16416 2.10651733-25.90229334 9.986432-17.08618667 14.16042667-15.83786667 32.88501333 3.74491734 56.17376 15.36970667 18.33450667 28.47690667 35.45962667 39.3216 51.45354667 10.80565333 16.03296 19.6608 32.26090667 26.52650666 48.68384 6.86567467 16.46197333 12.05397333 33.82122667 15.60384 52.11669333 3.51085867 18.33450667 5.92945067 39.12650667 7.17774934 62.45429334H252.46933333c-13.34122667 0-22.27445333 3.00373333-26.83850666 9.0112-4.60312533 6.04647467-6.86567467 14.66762667-6.86567467 25.90229333s2.574624 19.46570667 7.80190933 24.69301333c5.18826667 5.18826667 13.80938667 7.76289067 25.90229334 7.76290134h74.27413333v71.77749333H266.20053333c-13.34122667 0-22.27445333 3.04274133-26.83850666 9.050208-4.60312533 6.00746667-6.86567467 14.66762667-6.86567467 25.90229333s2.574624 19.42677333 7.80190933 24.65397334c5.18826667 5.22727467 13.80938667 7.80190933 25.90229334 7.80190933h60.54282666V711.36746667c0 12.09290667 2.69165867 20.67509333 8.113984 25.90229333s13.30229333 7.80190933 23.71776 7.80190933c10.80565333 0 19.46570667-2.30155733 25.90229334-6.86567466 6.475584-4.60312533 9.67435733-13.53632 9.67435733-26.83850667v-76.77077333h44.93898667c13.30229333 0 22.27445333-2.574624 26.83850666-7.80190934 4.60312533-5.22727467 6.86567467-13.41930667 6.86567467-24.65397333s-2.10651733-19.89482667-6.24152533-25.90229333-13.30229333-9.050208-27.46272-9.050208h-44.93898667v-71.77749334h58.04618667c12.87317333 0 21.61130667-2.574624 26.2144-7.76289066 4.56411733-5.22727467 6.86567467-13.45824 6.86567466-24.69301334s-2.06750933-19.85589333-6.24152533-25.90229333c-4.174016-6.00746667-13.1072-9.0112-26.83850667-9.0112h-59.29450666v-0.6631616a3073.64266667 3073.64266667 0 0 0 44.31477333-77.39488 1109.472 1109.472 0 0 0 31.20757333-59.95765333c5.42232533-11.66389333 6.98270933-21.76736 4.68114134-30.27136a35.96682667 35.96682667 0 0 0-15.91584-20.90912c-12.91210667-7.87992533-23.01557333-9.869408-30.27136-5.890432-7.294784 3.978976-14.47253333 14.23850667-21.53322667 30.89557333a271.11573333 271.11573333 0 0 1-14.66762667 31.51968 403.74826667 403.74826667 0 0 0-14.66762666 29.02304 450.44266667 450.44266667 0 0 0-32.14389334-82.07605333 313.1296 313.1296 0 0 0-51.49258666-72.0896Zm529.90506667 99.24021333c-0.46811413-24.96608-1.79444267-44.82197333-4.056992-59.56757333-2.30155733-14.78464-7.21675733-26.01930667-14.66762667-33.70421334s-18.33450667-12.67808-32.45589333-14.97962666c-14.16042667-2.30155733-33.50922667-3.43284267-58.04618667-3.43284267-16.22794667 0-29.64725333 1.32632533-40.21877333 4.056992-10.610592 2.69165867-18.95861333 7.17774933-25.00512 13.41930667s-10.29851733 14.35552-12.79509333 24.34197333-3.74491733 22.46944-3.74491734 37.44917333V315.73333333000005a306.8096 306.8096 0 0 0-58.9824-93.03776 427.0368 427.0368 0 0 0-85.82090666-70.52917333c-10.84469333-6.631616-21.14314667-8.309024-30.89557334-4.993216-9.791392 3.354816-16.34496 9.128224-19.6608 17.47626667-4.993216 12.87317333-4.876192 23.21066667 0.31207574 30.89557333 5.18826667 7.68487467 12.36597333 14.00437333 21.53322666 19.03669333 27.46272 17.08618667 50.36128 35.03050667 68.65674667 53.98922667a238.6208 238.6208 0 0 1 44.27584 63.66357333 284.10666667 284.10666667 0 0 1 23.7568 78.6432c4.56411733 28.90602667 6.86567467 62.10314667 6.86567467 99.59136V585.99146667c0 14.12149333 2.379584 24.10784 7.17774933 29.95936s12.99018667 8.77714133 24.65397333 8.77714133c12.48309333 0 21.14314667-2.92571733 25.90229334-8.77714133s7.21675733-15.79882667 7.21675733-29.95936l-3.12075733-155.4144c12.44405333-0.42910507 21.18218667-3.315808 26.2144-8.73813334 4.993216-5.42232533 7.450816-15.21376 7.450816-29.33514666v-152.29333334c0-4.56411733 1.560384-8.113984 4.68114133-10.571584 3.12075733-2.496608 9.24525867-3.78392533 18.41248-3.78392533s16.34496 0.8192 21.57226667 2.496608a17.90538667 17.90538667 0 0 1 10.88362666 8.113984 33.70421333 33.70421333 0 0 1 3.78392534 14.04341333c0.42910507 5.617376 0.62415253 12.32704 0.62415253 20.28490667 0 13.34122667 2.418592 23.91285333 7.21675733 31.83178667 4.75915733 7.87992533 13.41930667 11.85888 25.90229334 11.85888 12.87317333 0 21.72832-3.54986667 26.52650666-10.610592 4.72014933-7.13874133 6.670624-18.56853333 5.851424-34.4064Zm-37.48810667 88.00544c0-14.12149333-2.88670933-23.52277333-8.73813333-28.08682667s-13.53632-6.86567467-23.09365333-6.86567466c-10.84469333 0-19.03669333 2.30155733-24.65397334 6.86567466-5.656384 4.56411733-8.46506667 13.9264-8.46506666 28.08682667V642.7114666699999c0 3.74491733-0.39009493 6.12449067-1.20929067 7.17774933s-3.12075733 1.560384-6.86567467 1.560384h-146.67626666c-3.354816 0-5.34430933-0.62415253-5.92945067-1.87245867a16.50101333 16.50101333 0 0 1-0.93622933-6.86567466v-286.4864c0-14.16042667-2.76967467-23.32768-8.42605867-27.46272-5.617376-4.174016-13.65333333-6.24152533-24.02986667-6.24152534-9.98644267 0-17.98336 2.06750933-24.02986666 6.24152534-6.04647467 4.135008-9.050208 13.30229333-9.050208 27.46272V648.28906667c0 13.34122667 0.54613333 24.45898667 1.560384 33.39210666a47.20149333 47.20149333 0 0 0 7.48983466 21.84533334 31.28565333 31.28565333 0 0 0 17.16416 11.89792c7.489824 2.30155733 17.67136 3.43284267 30.58346667 3.43284266h179.13173333c11.23477333 0 20.48-1.13127467 27.77482667-3.43284266s12.99018667-6.24152533 17.16416-11.89792c4.096-5.617376 7.06072533-12.99018667 8.73813333-22.1184 1.6384-9.16724267 2.4576-20.59701333 2.4576-34.32842667v-289.6064Z"  horiz-adv-x="1024" />

    
    <glyph glyph-name="gerenzhongxin-denglu" unicode="&#58883;" d="M960.56404981 573.1484122100001c-64.03251808 151.7836971-200.4846981 260.89020733-362.6372545 289.96987879-162.15255642 29.07130227-328.01078689-25.83260313-440.79117083-145.92391137-43.24123922-47.20132371-65.90376668-81.70225995-96.92665659-151.34350102-2.74661797-20.25902684 48.00639577-40.50131661 58.43550937-17.91243545 26.3682015 57.11324985 34.59801237 69.02697747 82.82199542 127.55287021 81.43446013 86.53101845 191.67242268 134.19094788 310.42640816 134.19094789 234.91533573 0 426.08228653-191.16695078 426.08228652-426.08228653a423.8829838 423.8829838 0 0 0-85.40960785-255.62292656 395.88455343 395.88455343 0 0 1-53.80090571 71.40537049 30.43205747 30.43205747 0 0 1-29.47969673 9.3696324 30.43540515 30.43540515 0 0 1-14.68879825-51.21664096 334.68736156 334.68736156 0 0 0 55.28719228-78.16898086c-76.89526005-75.35373941-182.11365694-121.85543639-297.9921441-121.85543639-115.88183615 0-221.10023301 46.50169827-297.99716691 121.82865628 56.84042978 111.23718946 172.58501769 182.52037627 297.99716691 182.52037756a332.62028557 332.62028557 0 0 0 177.29996168-50.81996337 30.41699423 30.41699423 0 0 1 30.41364654-1.10467352 30.43875282 30.43875282 0 0 1 16.17173845 25.78573824 30.44544818 30.44544818 0 0 1-14.25362498 26.90045351 395.16484193 395.16484193 0 0 1-55.96673425 29.11983969 409.13895149 409.13895149 0 0 1-28.77170081 10.85089876 215.72918079 215.72918079 0 0 1 25.56312945 21.87419248c83.09481678 83.09481678 83.09481678 217.81801537 0 300.90781062-83.09481678 83.09481678-217.81299515 83.09481678-300.90781194 0-83.09481678-83.08979526-83.09481678-217.81299515 0-300.90781062a216.52588366 216.52588366 0 0 1 25.58990956-21.87419248 395.80086542 395.80086542 0 0 1-215.82793075-174.61527183 423.87294207 423.87294207 0 0 0-85.39956482 255.62292656c0 25.29867728 2.22608283 50.5555112 6.65983628 75.46253242 2.76335506 16.45794921-8.2398539 32.06898171-24.66432764 35.00138532-16.42614757 2.93240362-32.14932204-7.90510443-35.25077424-24.29945038A491.49564586 491.49564586 0 0 1 24.93978272 383.59997473c0.14728997-231.60801311 163.36769677-431.08176743 390.36118971-477.06627825C642.29614049-139.45750838000004 870.28216497-19.23899492999999 960.56404981 194.04986211000005a488.46951248 488.46951248 0 0 1 0 379.10524545v-0.00669535zM359.98365235 474.90116995c0 83.76096805 68.14323892 151.9058808 151.90922849 151.9058808 83.76096805 0 151.90420698-68.14491276 151.90420568-151.9058808s-68.14323892-151.90922849-151.90420568-151.90922849c-83.76431444 0-151.90922849 68.14993427-151.90922849 151.90922849z m0 0M76.07775721 523.32767574a30.43707899 30.43707899 0 0 1 23.3018986 0.37659285 30.3985833 30.3985833 0 0 1 16.20856029 16.74750763 453.27899252 453.27899252 0 0 0 8.47250442 19.89414958c7.24564851 15.85874756 16.39601979 30.72831126 24.58566243 46.12008394 11.59236756 21.78715808 9.67090641 41.87713635-4.64632051 50.67602107-14.32224844 8.80558007-31.45639066 6.42718576-47.20634522-18.79617272-10.564688-16.91822876-19.82385357-34.62144481-28.10554955-52.76485695a505.28396846 505.28396846 0 0 1-9.69266629-22.75123569c-6.18281965-15.6244232 1.46452798-33.30755449 17.08225583-39.50208971z m0 0"  horiz-adv-x="1024" />

    
    <glyph glyph-name="gongzuoqu_tianjiagangkoumatou" unicode="&#58944;" d="M297.728 101.12a340.736 340.736 0 0 0-134.144 32.768 28.416 28.416 0 0 0-17.408 19.712c-13.056 70.912-48.384 138.24-86.784 209.664C40.192 398.848 20.48 435.2 5.12 472.576a28.416 28.416 0 0 0 5.12 31.744c78.848 76.8 263.168 118.784 270.848 120.576a28.416 28.416 0 0 0 34.56-25.6 4694.784 4694.784 0 0 0 10.24-471.296 28.416 28.416 0 0 0-28.16-26.88zM199.168 179.2a286.208 286.208 0 0 1 71.168-19.712c3.072 110.592 0 239.872-9.472 401.152-49.152-13.312-142.592-42.752-196.352-84.48 13.824-28.928 29.44-58.112 44.8-86.528A839.68 839.68 0 0 0 199.168 179.2zM392.704 101.12A28.416 28.416 0 0 0 363.52 128a4694.784 4694.784 0 0 0 10.496 470.528 28.416 28.416 0 0 0 34.56 25.6c7.68-1.792 192-43.008 270.848-120.576a28.416 28.416 0 0 0 6.144-31.744c-14.848-36.608-35.584-72.96-54.784-108.544-38.4-71.424-74.496-138.752-86.784-208.384a28.416 28.416 0 0 0-16.128-20.992 340.224 340.224 0 0 0-134.144-32.768z m36.864 460.8c-9.472-161.28-12.544-290.304-9.472-401.152A286.208 286.208 0 0 1 491.52 179.2a838.912 838.912 0 0 0 89.856 210.176c15.36 28.416 30.976 57.6 44.8 86.528-51.456 39.936-141.056 70.144-196.864 85.504zM1000.704 16.896h-239.616a28.416 28.416 0 0 0-28.416 28.416V104.96h-57.088a28.416 28.416 0 0 0-28.416 28.416v76.8a28.416 28.416 0 0 0 28.416 28.416h325.12A28.416 28.416 0 0 0 1029.12 210.944v-165.632a28.416 28.416 0 0 0-28.416-28.416z m-211.2 56.832h183.04v108.8h-268.8v-20.736h57.088a28.416 28.416 0 0 0 28.416-28.416zM231.68-25.6H222.72a155.648 155.648 0 0 0-93.696 46.08 209.664 209.664 0 0 0-100.608-35.072 28.416 28.416 0 0 0 0 56.832c17.92 0 68.864 18.688 74.496 31.488a28.928 28.928 0 0 0 23.296 16.896 28.16 28.16 0 0 0 25.6-11.776 116.48 116.48 0 0 1 74.496-46.336A109.568 109.568 0 0 1 310.528 76.8a28.416 28.416 0 0 0 20.48 8.96 28.416 28.416 0 0 0 20.224-8.448 119.552 119.552 0 0 1 173.568-2.304 28.416 28.416 0 0 0 40.704-1.536 113.408 113.408 0 0 1 73.984-31.488 28.416 28.416 0 0 0 27.648-29.184 27.392 27.392 0 0 0-29.184-27.648 167.936 167.936 0 0 0-93.44 32.256 170.496 170.496 0 0 0-211.968 1.792A153.6 153.6 0 0 0 231.68-25.6zM540.416 597.248a28.416 28.416 0 0 0-28.416 28.416v110.08H169.216v-110.08a28.416 28.416 0 1 0-56.832 0V764.16A28.416 28.416 0 0 0 140.8 793.6h399.616A28.416 28.416 0 0 0 568.32 764.16v-138.496a28.416 28.416 0 0 0-27.904-28.416zM340.736 653.312A28.416 28.416 0 0 0 312.32 681.472V764.16a28.416 28.416 0 0 0 56.832 0v-82.688a28.416 28.416 0 0 0-28.416-28.16zM1000.704 257.28h-221.952a28.416 28.416 0 0 0-28.416 28.416v137.984a28.416 28.416 0 0 0 28.416 28.416h221.696A28.416 28.416 0 0 0 1029.12 423.68v-137.984a28.416 28.416 0 0 0-28.416-28.416z m-193.536 56.832h165.12v81.152h-165.12z"  horiz-adv-x="1029" />

    
    <glyph glyph-name="mail" unicode="&#59111;" d="M967.71889683 527.84909275A99.42053925 99.42053925 0 0 0 1009.1026963 447.13204243v-461.68412918a99.42053925 99.42053925 0 0 0-99.42053927-99.42053927H114.31784297a99.42053925 99.42053925 0 0 0-99.42053927 99.42053927v461.68412918a99.42053925 99.42053925 0 0 0 41.38379947 80.77918815l55.98619118 40.14104272v224.93897008c0 49.08889125 39.95462922 89.04352048 89.04352047 89.04352047h621.37837036c49.08889125 0 89.04352048-40.01676705 89.04352047-89.1056583v-224.87683225l55.98619118-40.20318055z m-33.18160498-541.77980113v425.02280533l-361.8907629-207.5403757 361.8907629-217.48242963z m-820.21944888-25.47651319h717.94056912L89.46270815 406.74244835v-421.41881078a24.85513482 24.85513482 0 0 1 24.85513482-24.85513482zM201.31081482 807.3450837299999a14.72666738 14.72666738 0 0 1-14.47811604-14.47811603v-357.60325215l312.5533203-187.84268136 337.78128214 193.68363804V792.92910555A14.66452955 14.66452955 0 0 1 822.68918518 807.40722157H201.31081482z m103.58377433-166.46726542a37.28270222 37.28270222 0 1 0 0 74.56540444h414.27295953a37.28270222 37.28270222 0 1 0 0-74.56540444H304.89458915z m0-156.33879799a37.28270222 37.28270222 0 1 0 0 74.56540445H512a37.28270222 37.28270222 0 1 0 0-74.56540445H304.89458915z"  horiz-adv-x="1024" />

    
    <glyph glyph-name="tiaoshi" unicode="&#60257;" d="M548.40888889 524.5019022199999V857.31555555a36.40888889 36.40888889 0 0 1-72.81777778 0v-332.81365333c-62.69610667-16.23836445-109.22666667-72.70855111-109.22666666-140.50190222s46.53056-124.26353778 109.22666666-140.50190222v-331.79420445c0-20.68024889 16.31118222-37.42833778 36.40888889-37.42833778s36.40888889 16.74808889 36.40888889 37.46474667v331.79420445c62.69610667 16.23836445 109.22666667 72.70855111 109.22666666 140.50190222s-46.53056 124.22712889-109.22666666 140.46549333zM183.33696 160.70428445000005C183.55541333 162.34268444999998 184.32 163.83544888999995 184.32 165.54666667000004V857.31555555a36.40888889 36.40888889 0 0 1-72.81777778 0v-691.76888888c0-1.71121778 0.76458667-3.20398222 0.98304-4.84238222A145.34428445 145.34428445 0 0 1 2.27555555 19.91111110999998a145.63555555 145.63555555 0 0 1 291.27111112 0 145.34428445 145.34428445 0 0 1-110.20970667 140.79317334zM147.91111111-52.90666667000005a72.81777778 72.81777778 0 1 0 0.03640889 145.67196445A72.81777778 72.81777778 0 0 0 147.91111111-52.90666667000005zM1021.72444445 748.08888889a145.63555555 145.63555555 0 0 1-291.27111112 0 145.34428445 145.34428445 0 0 1 110.20970667-140.79317334c-0.21845333-1.6384-0.98304-3.13116445-0.98304-4.84238222v-691.76888888a36.40888889 36.40888889 0 0 1 72.81777778 0V602.4533333300001c0 1.71121778-0.76458667 3.20398222-0.98304 4.84238222A145.34428445 145.34428445 0 0 1 1021.72444445 748.08888889z m-145.63555556-72.81777778a72.81777778 72.81777778 0 1 0 0.03640889 145.67196444A72.81777778 72.81777778 0 0 0 876.08888889 675.27111111z"  horiz-adv-x="1024" />

    
    <glyph glyph-name="tianshenpi" unicode="&#60263;" d="M583.94396445-52.90666667000005H111.50222222a36.40888889 36.40888889 0 0 0-36.40888889 36.40888889V784.49777778a36.40888889 36.40888889 0 0 0 36.40888889 36.40888889h618.95111111c20.09770667 0 36.40888889-16.31118222 36.40888889-36.40888889a36.40888889 36.40888889 0 0 1 72.81777778 0 109.22666667 109.22666667 0 0 1-109.22666667 109.22666667H111.50222222a109.22666667 109.22666667 0 0 1-109.22666667-109.22666667v-800.99555556a109.22666667 109.22666667 0 0 1 109.22666667-109.22666667h472.44174223a36.40888889 36.40888889 0 0 1 0 72.81777778zM512 638.8622222199999a36.40888889 36.40888889 0 0 1-36.40888889 36.40888889H184.32a36.40888889 36.40888889 0 0 1 0-72.81777778h291.27111111a36.40888889 36.40888889 0 0 1 36.40888889 36.40888889zM475.59111111 420.40888889a36.40888889 36.40888889 0 0 1-36.40888889 36.40888889H184.32a36.40888889 36.40888889 0 0 1 0-72.81777778h254.86222222a36.40888889 36.40888889 0 0 1 36.40888889 36.40888889zM184.32 201.95555554999999a36.40888889 36.40888889 0 0 1 0-72.81777777h145.63555555a36.40888889 36.40888889 0 0 1 0 72.81777777H184.32zM912.49777778 256.56888889000004h-75.29358223C864.80213333 333.61009778000005 912.49777778 475.42272 912.49777778 493.22666667a182.04444445 182.04444445 0 0 1-364.08888889 0c0-22.82837333 45.32906667-158.99761778 74.74744889-236.65777778H548.40888889a109.22666667 109.22666667 0 0 1-109.22666667-109.22666667v-36.40888889a109.22666667 109.22666667 0 0 1 109.22666667-109.22666666h364.08888889a109.22666667 109.22666667 0 0 1 109.22666667 109.22666666v36.40888889a109.22666667 109.22666667 0 0 1-109.22666667 109.22666667z m-252.05873778 112.03015111C638.41166222 432.05973333 621.22666667 487.98378667 621.22666667 493.22666667a109.22666667 109.22666667 0 1 0 218.45333333 0c0-7.17255111-59.38289778-180.29681778-80.02673778-236.65777778h-58.25422222c-9.10222222 22.9376-25.48622222 67.42926222-40.96 112.03015111zM948.90666667 110.93333332999998a36.40888889 36.40888889 0 0 0-36.40888889-36.40888888H548.40888889a36.40888889 36.40888889 0 0 0-36.40888889 36.40888888v36.40888889a36.40888889 36.40888889 0 0 0 36.40888889 36.40888889h364.08888889a36.40888889 36.40888889 0 0 0 36.40888889-36.40888889v-36.40888889z"  horiz-adv-x="1024" />

    
    <glyph glyph-name="zhanghaoquanxianguanli" unicode="&#60264;" d="M853.33333333 497.7664h-238.93333333a34.13333333 34.13333333 0 0 1 0-68.26666667h238.93333333a34.13333333 34.13333333 0 0 1 0 68.26666667zM853.33333333 327.09973333000005h-238.93333333a34.13333333 34.13333333 0 0 1 0-68.26666666h238.93333333a34.13333333 34.13333333 0 0 1 0 68.26666666zM397.17546667 252.41600000000005v22.25493333c32.8704 21.2992 64.58026667 58.70933333 81.88586666 104.58453334 12.25386667 5.3248 21.06026667 20.3776 28.16 47.2064 5.49546667 20.7872-3.31093333 34.5088-15.22346666 42.12053333C486.12693333 566.5792 428.9536 622.93333333 341.33333333 622.93333333c-88.84906667 0-148.75306667-57.99253333-153.36106666-158.58346666-10.78613333-8.9088-17.7152-23.21066667-12.32213334-43.58826667 7.68-29.04746667 17.16906667-45.73866667 30.24213334-52.1216 18.46613333-41.23306667 48.70826667-74.68373333 79.59893333-94.27626667v-21.94773333C199.50933333 243.16586667 136.53333333 213.06026667000003 136.53333333 177.35680000000002c0-43.07626667 409.6-43.07626667 409.6 0 0 35.70346667-62.976 65.80906667-148.95786666 75.0592zM921.6 793.6H102.4a102.4 102.4 0 0 1-102.4-102.4v-614.4a102.4 102.4 0 0 1 102.4-102.4h819.2a102.4 102.4 0 0 1 102.4 102.4V691.2a102.4 102.4 0 0 1-102.4 102.4z m34.13333333-716.8a34.13333333 34.13333333 0 0 0-34.13333333-34.13333333H102.4a34.13333333 34.13333333 0 0 0-34.13333333 34.13333333V691.2a34.13333333 34.13333333 0 0 0 34.13333333 34.13333333h819.2a34.13333333 34.13333333 0 0 0 34.13333333-34.13333333v-614.4z"  horiz-adv-x="1024" />

    
    <glyph glyph-name="add" unicode="&#58976;" d="M510.86222222-119.69422222000003c-278.07288889 0-504.26311111 226.19022222-504.26311111 504.26311111S232.78933333 888.832 510.86222222 888.832s504.26311111-226.19022222 504.26311111-504.26311111S788.93511111-119.69422222000003 510.86222222-119.69422222000003z m0 949.13422222c-245.30488889 0-444.87111111-199.56622222-444.87111111-444.87111111s199.56622222-444.87111111 444.87111111-444.87111111 444.87111111 199.56622222 444.87111111 444.87111111-199.56622222 444.87111111-444.87111111 444.87111111zM258.73066667 414.26488889h504.26311111v-59.27822222H258.73066667zM481.16622222 636.7004444500001H540.44444445v-504.26311112h-59.27822223z"  horiz-adv-x="1024" />

    
    <glyph glyph-name="jiesuan" unicode="&#58918;" d="M845.10613333 239.49013334000006c3.67893333-2 7.62666667-2.96106667 11.5488-2.96106667 8.51413333 0 16.7488 4.52586667 21.1264 12.4896 53.904 98.272 66.3392 211.49333333 35.06346667 318.7648-64.6592 221.69386667-297.80906667 349.49226667-519.76533333 284.98133333-171.25973333-49.93173333-292.29546667-203.264-301.2224-381.54453333-0.6784-13.28426667 9.5488-24.57066667 22.81173333-25.24053333 13.08693333-0.91626667 24.592 9.5264 25.2416 22.80533333 7.91466667 157.83253333 115.04426667 293.57226667 266.59733333 337.77706667 196.4736 57.0752 402.88746667-56.01813333 460.11093334-252.25386667 27.6928-94.95146667 16.6496-195.15306667-31.0688-282.16746667-6.3776-11.6224-2.1152-26.25066667 9.55626666-32.65066666z m0 0M622.4704 528.2016c13.28426667 0 24.06506667 10.77866667 24.06506667 24.06186667 0 13.27893333-10.77973333 24.064-24.06506667 24.064h-74.16l67.49653333 88c8.08533333 10.53653333 6.0864 25.648-4.45013333 33.7344-10.51946667 8.06186667-25.632 6.08533333-33.73973333-4.4512l-66.8736-87.20746667-66.8672 87.20746667c-8.0864 10.53653333-23.19893333 12.53546667-33.7408 4.4512-10.53653333-8.08746667-12.5344-23.19893333-4.45013334-33.7344l67.49653334-88h-74.16106667c-13.28426667 0-24.06293333-10.78506667-24.06293333-24.064 0-13.2832 10.77866667-24.06186667 24.06293333-24.06186667h87.68746667v-61.72373333h-87.68746667c-13.28426667 0-24.06293333-10.77866667-24.06293333-24.064s10.77866667-24.06293333 24.06293333-24.06293333h87.68746667V308.52266667000004c0-13.27786667 10.7776-24.06293333 24.06186666-24.06293333 13.28533333 0 24.06186667 10.784 24.06186667 24.06293333V418.352h87.68853333c13.28426667 0 24.06186667 10.7776 24.06186667 24.06293334s-10.7776 24.064-24.06186667 24.064h-87.68853333V528.20266667h87.6384v-0.00106667z m0 0M956.8768 127.81226666999999c-99.4496 20.4064-211.56373333 83.04-211.77706667 83.04-48.99733333 32.77653333-87.5456 48.704-117.79306666 48.704-25.45706667 0-46.68266667-11.57226667-58.16-31.7632-14.848-26.0128-10.03413333-60.71146667 2.33493333-81.59466667 5.6768-9.52746667 16.74773333-25.91786667 28.5408-42.8832-245.18293333 15.40053333-287.75146667 71.4688-336.37866667 135.54773334-15.184 19.9712-30.87573333 40.6208-52.41066666 61.48373333-39.70453333 38.40426667-72.0224 56.28053333-101.6928 56.28053333-23.0048 0-42.8096-10.9472-55.85173334-30.77653333-26.8992-40.9536-17.9488-114.92053333-8.15573333-137.44746667C156.13013333-67.05066666000005 423.1072-111.69066666000003 434.39146667-113.44106666000005c1.85706667-0.29226667 3.70773333-0.4352 5.56373333-0.4352h509.68c19.84853333 0 35.9264 16.07146667 35.9264 35.90293333V92.60906666999995c0.02133333 17.08586667-11.98506667 31.78453333-28.6848 35.2032z m-19.41973333-193.56586667H440.96213333c-18.864 3.1296-252.94933333 46.2272-351.248 273.26293334-6.27733333 15.20533333-10.46933333 69.56693333 4.208 91.89866666 5.29813333 8.05653333 11.12 9.0944 15.6192 9.0944 10.97066667 0 31.69066667-7.4144 68.21866667-42.73493333 18.912-18.2912 32.82453333-36.60373333 47.55306667-55.99466667 63.1168-83.1872 123.0784-138.86933333 371.6768-154.49066666 1.01226667-0.0416 2.02133333-0.09173333 3.03466666-0.09173334 17.27786667 0 33.34826667 9.312 41.9168 24.4992 9.072 16.06826667 8.13013333 35.92533333-2.40533333 51.0816-16.67733333 24.01813333-23.72693333 35.0112-26.6624 39.94666667-4.93546667 8.32746667-6.83413333 24.61226667-1.89866667 33.30453333 2.78506667 4.92906667 8.2976 7.408 16.31146667 7.408 11.33546667 0 38.23466667-5.26933333 91.00906667-40.59306666a49.57866667 49.57866667 0 0 1 4.9056-2.89066667c27.86453333-15.06133333 123.32266667-64.46186667 214.20906666-85.1808v-148.5184h0.04693334z m0 0"  horiz-adv-x="1024" />

    
    <glyph glyph-name="operation" unicode="&#58959;" d="M512-128A512 512 0 1 0 512 896a512 512 0 0 0 0-1024z m0 56.888889A455.111111 455.111111 0 1 1 512 839.111111a455.111111 455.111111 0 0 1 0-910.222222zM227.555556 384h113.777777v-227.555556H227.555556z m455.111111 113.777778h113.777777v-341.333334h-113.777777zM455.111111 668.444444h113.777778v-512H455.111111z"  horiz-adv-x="1024" />

    
    <glyph glyph-name="icon_fabu" unicode="&#60296;" d="M118.85681778 433.26122667l241.93706667-146.47296a36.40888889 36.40888889 0 1 0-37.7196089-62.2592l-303.24963555 183.53720889a36.40888889 36.40888889 0 0 0 4.84238222 64.77141334l946.63111111 395.32771555a36.40888889 36.40888889 0 0 0 49.77095112-40.41386667l-165.8424889-873.81333333a36.40888889 36.40888889 0 0 0-55.26869333-23.95704889l-307.43665777 194.93319111a36.40888889 36.40888889 0 0 0 38.9575111 61.53102223l262.21681778-166.24298667L936.89173333 774.84942223 118.85681778 433.26122667zM402.77333333 224.60188444999994V-75.66222221999999a36.40888889 36.40888889 0 0 0-72.81777778 0v317.01219555a36.40888889 36.40888889 0 0 0 12.74311112 27.67075557L785.28512 647.96444445a36.40888889 36.40888889 0 0 0 47.33155555-55.34151112L402.77333333 224.63829333z"  horiz-adv-x="1024" />

    
    <glyph glyph-name="icon_yulan" unicode="&#60298;" d="M512 160a224 224 0 1 0 0 448 224 224 0 0 0 0-448z m0 64a160 160 0 1 1 0 320 160 160 0 0 1 0-320zM512 32C323.232 32 154.144 144.736 5.44 366.144a32 32 0 0 0 0 35.712C154.144 623.296 323.2 736 512 736c188.768 0 357.856-112.736 506.56-334.144a32 32 0 0 0 0-35.712C869.856 144.704 700.8 32 512 32z m0 64c159.84 0 306.72 94.784 441.248 288C818.72 577.216 671.84 672 512 672c-159.84 0-306.72-94.784-441.248-288 134.528-193.216 281.408-288 441.248-288z"  horiz-adv-x="1024" />

    
    <glyph glyph-name="icon_yingyongguanli" unicode="&#60303;" d="M147.91111111 784.49777778a36.40888889 36.40888889 0 0 1-36.40888889-36.40888889v-218.45333334a36.40888889 36.40888889 0 0 1 36.40888889-36.40888888h218.45333334a36.40888889 36.40888889 0 0 1 36.40888888 36.40888888V748.08888889a36.40888889 36.40888889 0 0 1-36.40888888 36.40888889H147.91111111z m0 72.81777777h218.45333334a109.22666667 109.22666667 0 0 0 109.22666666-109.22666666v-218.45333334a109.22666667 109.22666667 0 0 0-109.22666666-109.22666666H147.91111111a109.22666667 109.22666667 0 0 0-109.22666666 109.22666666V748.08888889a109.22666667 109.22666667 0 0 0 109.22666666 109.22666666zM147.91111111 274.77333333a36.40888889 36.40888889 0 0 1-36.40888889-36.40888888v-218.45333334a36.40888889 36.40888889 0 0 1 36.40888889-36.40888889h218.45333334a36.40888889 36.40888889 0 0 1 36.40888888 36.40888889v218.45333334a36.40888889 36.40888889 0 0 1-36.40888888 36.40888888H147.91111111z m0 72.81777778h218.45333334a109.22666667 109.22666667 0 0 0 109.22666666-109.22666666v-218.45333334a109.22666667 109.22666667 0 0 0-109.22666666-109.22666666H147.91111111a109.22666667 109.22666667 0 0 0-109.22666666 109.22666666v218.45333334a109.22666667 109.22666667 0 0 0 109.22666666 109.22666666zM657.63555555 274.77333333a36.40888889 36.40888889 0 0 1-36.40888888-36.40888888v-218.45333334a36.40888889 36.40888889 0 0 1 36.40888888-36.40888889h218.45333334a36.40888889 36.40888889 0 0 1 36.40888889 36.40888889v218.45333334a36.40888889 36.40888889 0 0 1-36.40888889 36.40888888h-218.45333334z m0 72.81777778h218.45333334a109.22666667 109.22666667 0 0 0 109.22666666-109.22666666v-218.45333334a109.22666667 109.22666667 0 0 0-109.22666666-109.22666666h-218.45333334a109.22666667 109.22666667 0 0 0-109.22666666 109.22666666v218.45333334a109.22666667 109.22666667 0 0 0 109.22666666 109.22666666zM614.70947555 663.58385778a36.40888889 36.40888889 0 0 1 0-51.51857778l127.43111112-127.43111111a36.40888889 36.40888889 0 0 1 51.51857778 0l127.4311111 127.43111111a36.40888889 36.40888889 0 0 1 0 51.51857778l-127.4311111 127.43111111a36.40888889 36.40888889 0 0 1-51.51857778 0l-127.43111112-127.43111111z m-51.48216888 51.48216889l127.43111111 127.43111111a109.22666667 109.22666667 0 0 0 154.48291555 0l127.43111112-127.43111111a109.22666667 109.22666667 0 0 0 0-154.48291556l-127.43111112-127.43111111a109.22666667 109.22666667 0 0 0-154.48291555 0l-127.43111111 127.43111111a109.22666667 109.22666667 0 0 0 0 154.48291556z"  horiz-adv-x="1024" />

    
    <glyph glyph-name="yunyingguanli" unicode="&#60369;" d="M917.57226667 805.30773333c-89.53173333 89.53173333-247.0912 86.528-413.45706667 4.096-166.33173333 82.432-323.92533333 85.43573333-413.45706667-4.096-74.41066667-74.41066667-84.7872-195.7888-39.08266666-329.96693333a102.16106667 102.16106667 0 0 1 13.85813333-130.69653333c-59.66506667-146.0224-57.0368-283.92106667 25.25866667-366.21653334 89.53173333-89.53173333 247.15946667-86.56213333 413.62773333-4.02773333 162.98666667-80.72533333 322.1504-87.07413333 413.25226667 4.02773333 91.136 91.136 84.71893333 250.368 3.92533333 413.42293334 80.7936 163.08906667 87.21066667 322.32106667-3.92533333 413.45706666z m-48.26453334-778.61546666c-102.84373333-102.84373333-354.816-31.36853333-558.25066666 172.10026666a34.0992 34.0992 0 1 1-48.26453334-48.26453333 973.9264 973.9264 0 0 1 167.86773334-134.72426667c-125.06453333-51.0976-233.71093333-47.06986667-291.70346667 10.92266667-59.4944 59.4944-60.3136 168.92586667-11.3664 289.92853333 3.00373333-0.27306667 5.87093333-0.9216 8.94293333-0.9216a102.4 102.4 0 0 1 102.4 102.4c0 22.4256-7.40693333 42.97386667-19.62666666 59.83573334a928.63146667 928.63146667 0 0 0 91.7504 106.97386666 34.0992 34.0992 0 1 1-48.26453334 48.26453334 995.84 995.84 0 0 1-99.70346666-116.6336A99.1232 99.1232 0 0 1 136.53333333 520.53333333a102.05866667 102.05866667 0 0 1-26.38506666-3.85706666c-30.6176 102.87786667-21.0944 190.464 28.80853333 240.36693333 66.52586667 66.52586667 199.74826667 62.0544 347.8528-15.18933333a33.0752 33.0752 0 0 1 17.64693333-3.24266667 33.1776 33.1776 0 0 1 17.1008 3.31093333c148.0704 77.17546667 281.22453333 81.64693333 347.7504 15.12106667 59.73333333-59.73333333 60.3136-169.81333333 10.71786667-291.4304a937.984 937.984 0 0 1-72.0896 98.64533333c6.9632 12.35626667 11.264 26.4192 11.264 41.60853334a85.33333333 85.33333333 0 1 1-85.33333333-85.33333334c6.79253333 0 13.312 0.98986667 19.62666666 2.49173334a849.03253333 849.03253333 0 0 0 91.10186667-131.14026667c-33.62133333-60.45013333-78.91626667-121.68533333-134.58773333-179.57546667-3.41333333 0.4096-6.7584 1.024-10.27413334 1.024a85.33333333 85.33333333 0 1 1 70.17813334-36.93226666 961.1264 961.1264 0 0 1 110.11413333 141.7216c49.5616-121.58293333 49.01546667-231.69706667-10.71786667-291.4304zM512 520.53333333a136.53333333 136.53333333 0 1 1 0-273.06666666 136.53333333 136.53333333 0 0 1 0 273.06666666z m0-204.8a68.26666667 68.26666667 0 1 0 0.03413333 136.56746667A68.26666667 68.26666667 0 0 0 512 315.73333333000005z"  horiz-adv-x="1024" />

    
    <glyph glyph-name="miwen" unicode="&#60387;" d="M562.39328 602.304a32 32 0 0 0-14.336-62.4 160 160 0 0 1-185.056-214.336 32 32 0 1 0-59.584-23.328 224 224 0 0 0 258.976 300.064z m-100.256-436.704a32 32 0 0 0 14.208 62.4 160 160 0 0 1 188.224 204.48 32 32 0 1 0 60.992 19.328 224 224 0 0 0-263.456-286.208zM213.46528 219.904a32 32 0 1 0-42.336-48C132.05728 206.4 77.49728 270.432 6.45728 364.736a32 32 0 0 0-0.992 37.12C154.16928 623.296 323.22528 736 512.02528 736c52.704 0 104.096-8.832 154.016-26.496a32 32 0 0 0-21.344-60.352A394.752 394.752 0 0 1 512.02528 672c-159.584 0-306.24-94.464-440.576-287.04 61.824-81.056 109.44-136.288 142.048-165.056z m599.808 325.76a32 32 0 0 0 42.592 47.808c38.368-34.24 91.968-97.376 161.728-190.24a32 32 0 0 0 0.992-37.088C869.88128 144.704 700.82528 32 512.02528 32c-37.824 0-74.944 4.544-111.36 13.664a32 32 0 0 0 15.488 62.08c31.36-7.84 63.264-11.744 95.872-11.744 159.584 0 306.24 94.464 440.576 287.04-60.64 79.712-107.328 134.112-139.328 162.656zM823.92928 773.088a32 32 0 0 0 48.192-42.176l-672-768a32 32 0 0 0-48.192 42.176l672 768z"  horiz-adv-x="1024" />

    
    <glyph glyph-name="kongxinduigou" unicode="&#60389;" d="M512-96C246.912-96 32 118.91200000000003 32 384 32 649.088 246.912 864 512 864c265.088 0 480-214.912 480-480 0-265.088-214.912-480-480-480z m0 64c229.76 0 416 186.24 416 416S741.76 800 512 800 96 613.76 96 384s186.24-416 416-416zM741.216 552a32 32 0 0 0 46.816-43.616l-315.296-338.208a32 32 0 0 0-43.968-2.688l-193.344 162.368a32 32 0 1 0 41.152 48.992l170.08-142.816 294.56 316z"  horiz-adv-x="1024" />

    
    <glyph glyph-name="icon-cancel" unicode="&#59121;" d="M949.70311111 645.34755555l-62.80533333-36.75022222c10.46755555-17.408 19.79733333-35.72622222 27.76177777-54.61333333 22.75555555-53.81688889 34.36088889-111.04711111 34.3608889-169.984S937.52888889 267.83288889000005 914.65955555 213.90222222c-21.95911111-51.99644445-53.47555555-98.75911111-93.6391111-138.92266667s-86.92622222-71.68-138.92266667-93.6391111c-53.81688889-22.75555555-111.04711111-34.24711111-169.984-34.24711112s-116.28088889 11.49155555-169.984 34.24711112c-5.46133333 2.27555555-10.92266667 4.77866667-16.27022223 7.28177777-45.51111111 21.504-86.69866667 50.51733333-122.65244444 86.35733333-28.89955555 28.89955555-53.47555555 61.32622222-73.04533333 96.71111112-7.62311111 13.65333333-14.44977778 27.76177778-20.59377778 42.21155555-22.75555555 53.81688889-34.36088889 111.04711111-34.36088889 170.09777778s11.49155555 116.16711111 34.36088889 169.984c21.95911111 51.99644445 53.47555555 98.75911111 93.63911111 138.92266667s86.92622222 71.68 138.92266667 93.63911111c53.81688889 22.75555555 111.04711111 34.24711111 169.984 34.24711111s116.28088889-11.49155555 169.984-34.24711111c3.29955555-1.36533333 6.59911111-2.84444445 9.89866667-4.32355556l30.83377777 65.99111111C658.54577778 877.45422222 587.20711111 893.72444445 512 893.72444445 230.51377778 893.72444445 2.27555555 665.48622222 2.27555555 384c0-90.45333333 23.552-175.33155555 64.85333334-249.05955555 51.76888889-92.27377778 131.52711111-166.912 227.66933333-212.19555556 65.99111111-31.06133333 139.49155555-48.46933333 217.20177778-48.46933334 281.48622222 0 509.72444445 228.23822222 509.72444445 509.72444445 0 95.57333333-26.28266667 185.00266667-72.02133334 261.34755555zM828.30222222 737.0524444499999m-36.40888889 0a36.40888889 36.40888889 0 1 1 72.81777778 0 36.40888889 36.40888889 0 1 1-72.81777778 0ZM692.224 564.2239999999999c-14.22222222 14.22222222-37.31911111 14.22222222-51.54133333 0L512 435.54133333 383.31733333 564.2239999999999c-14.22222222 14.22222222-37.31911111 14.22222222-51.54133333 0s-14.22222222-37.31911111 0-51.54133333L460.45866667 384 331.776 255.31733333c-14.22222222-14.22222222-14.22222222-37.31911111 0-51.54133333s37.31911111-14.22222222 51.54133333 0L512 332.45866666999996l128.68266667-128.68266667c14.22222222-14.22222222 37.31911111-14.22222222 51.54133333 0s14.22222222 37.31911111 0 51.54133333L563.54133333 384l128.68266667 128.68266667c14.22222222 14.22222222 14.22222222 37.31911111 0 51.54133333z"  horiz-adv-x="1024" />

    
    <glyph glyph-name="Dollar" unicode="&#59261;" d="M512 893.72444445C230.51377778 893.72444445 2.27555555 665.48622222 2.27555555 384s228.23822222-509.72444445 509.72444445-509.72444445 509.72444445 228.23822222 509.72444445 509.72444445S793.48622222 893.72444445 512 893.72444445z m0-932.97777778c-233.69955555 0-423.25333333 189.55377778-423.25333333 423.25333333s189.55377778 423.25333333 423.25333333 423.25333333 423.25333333-189.55377778 423.25333333-423.25333333-189.55377778-423.25333333-423.25333333-423.25333333zM566.272 410.39644445l-28.89955555 6.71288888V569.91288889c43.23555555-5.91644445 69.97333333-32.99555555 74.52444444-66.21866667 0.56888889-4.55111111 4.43733333-7.85066667 8.98844444-7.85066667h51.08622222c5.34755555 0 9.55733333 4.66488889 9.10222223 10.01244445-6.94044445 70.88355555-65.30844445 116.39466667-143.24622223 124.24533333V667.30666667c0 5.00622222-4.096 9.10222222-9.10222222 9.10222222h-31.97155555c-5.00622222 0-9.10222222-4.096-9.10222223-9.10222222v-37.54666667c-80.55466667-7.85066667-143.58755555-52.33777778-143.58755555-135.39555555 0-76.91377778 56.66133333-114.00533333 116.16711111-128.22755556l28.10311111-7.168v-162.36088889c-50.28977778 6.71288889-78.50666667 33.56444445-84.30933333 69.74577778-0.68266667 4.32355555-4.55111111 7.50933333-8.98844444 7.50933333H342.47111111c-5.34755555 0-9.55733333-4.55111111-9.10222222-9.89866666 5.12-62.57777778 52.56533333-120.14933333 153.82755556-127.5448889V100.69333332999997c0-5.00622222 4.096-9.10222222 9.10222222-9.10222222h32.31288888c5.00622222 0 9.10222222 4.096 9.10222223 9.216l-0.22755556 36.06755556c89.088 7.85066667 152.80355555 55.52355555 152.80355556 141.08444444-0.11377778 78.96177778-50.28977778 114.23288889-124.01777778 132.43733334z m-78.05155555 18.432c-6.37155555 1.82044445-11.71911111 3.52711111-17.06666667 5.68888888-38.45688889 13.88088889-56.32 36.29511111-56.32 65.19466667 0 41.30133333 31.28888889 64.85333333 73.38666667 70.20088889v-141.08444444zM537.37244445 196.26666666999995V348.38755555c3.52711111-1.024 6.71288889-1.82044445 10.01244444-2.5031111 53.81688889-16.384 71.90755555-39.13955555 71.90755556-74.06933334 0-44.48711111-33.45066667-71.22488889-81.92-75.54844444z"  horiz-adv-x="1024" />

    
    <glyph glyph-name="info-circle" unicode="&#59262;" d="M512 893.72444445C230.51377778 893.72444445 2.27555555 665.48622222 2.27555555 384s228.23822222-509.72444445 509.72444445-509.72444445 509.72444445 228.23822222 509.72444445 509.72444445S793.48622222 893.72444445 512 893.72444445z m0-932.97777778c-233.69955555 0-423.25333333 189.55377778-423.25333333 423.25333333s189.55377778 423.25333333 423.25333333 423.25333333 423.25333333-189.55377778 423.25333333-423.25333333-189.55377778-423.25333333-423.25333333-423.25333333zM512 584.24888889m-54.61333333 0a54.61333333 54.61333333 0 1 1 109.22666666 0 54.61333333 54.61333333 0 1 1-109.22666666 0ZM539.30666667 456.81777778h-54.61333334c-5.00622222 0-9.10222222-4.096-9.10222222-9.10222223v-309.47555555c0-5.00622222 4.096-9.10222222 9.10222222-9.10222222h54.61333334c5.00622222 0 9.10222222 4.096 9.10222222 9.10222222V447.71555555c0 5.00622222-4.096 9.10222222-9.10222222 9.10222223z"  horiz-adv-x="1024" />

    
    <glyph glyph-name="poweroff" unicode="&#59276;" d="M732.27377778 824.43377778c-6.03022222 3.072-13.19822222-1.36533333-13.19822223-8.192v-73.04533333c0-6.25777778 3.29955555-12.06044445 8.53333334-15.47377778 25.48622222-16.04266667 49.152-34.92977778 70.76977778-56.66133334 37.20533333-37.31911111 66.44622222-80.66844445 86.81244444-128.91022222 21.04888889-49.94844445 31.744-102.96888889 31.744-157.80977778 0-54.72711111-10.69511111-107.86133333-31.744-157.80977778-20.36622222-48.24177778-49.60711111-91.59111111-86.81244444-128.91022222-37.20533333-37.31911111-80.55466667-66.56-128.79644445-86.92622222-49.83466667-21.16266667-102.96888889-31.85777778-157.58222222-31.85777778s-107.74755555 10.69511111-157.58222222 31.85777778c-48.24177778 20.36622222-91.59111111 49.60711111-128.79644445 86.92622222-37.20533333 37.31911111-66.44622222 80.66844445-86.81244444 128.91022222-21.04888889 49.94844445-31.744 102.96888889-31.744 157.80977778 0 54.72711111 10.69511111 107.86133333 31.744 157.80977778 20.36622222 48.24177778 49.60711111 91.59111111 86.81244444 128.91022222 21.61777778 21.61777778 45.28355555 40.50488889 70.76977778 56.66133334 5.34755555 3.29955555 8.53333333 9.216 8.53333334 15.47377778V816.35555555c0 6.82666667-7.168 11.15022222-13.19822223 8.192C132.55111111 744.448 22.75555555 580.49422222 20.48 390.48533333 17.29422222 118.78399999999999 239.50222222-106.95111111000006 511.08977778-107.51999999999998c271.92888889-0.56888889 492.43022222 219.93244445 492.43022222 491.97511111 0 192.512-110.36444445 359.19644445-271.24622222 439.97866667zM475.59111111 329.38666666999995h72.81777778c5.00622222 0 9.10222222 4.096 9.10222222 9.10222222V866.41777778c0 5.00622222-4.096 9.10222222-9.10222222 9.10222222h-72.81777778c-5.00622222 0-9.10222222-4.096-9.10222222-9.10222222v-527.92888889c0-5.00622222 4.096-9.10222222 9.10222222-9.10222222z"  horiz-adv-x="1024" />

    
    <glyph glyph-name="setting" unicode="&#59278;" d="M981.67466667 254.63466667l-74.52444445 63.71555555c3.52711111 21.61777778 5.34755555 43.69066667 5.34755556 65.76355556s-1.82044445 44.14577778-5.34755556 65.76355555l74.52444445 63.71555556c11.49155555 9.78488889 15.70133333 25.71377778 10.58133333 40.04977778l-1.024 2.95822222c-20.59377778 57.45777778-51.08622222 110.25066667-90.68088889 156.89955556l-2.048 2.38933333c-9.78488889 11.49155555-25.6 15.81511111-39.936 10.80888889l-92.50133333-32.88177778c-34.13333333 27.98933333-72.24888889 50.06222222-113.43644445 65.536l-17.86311111 96.71111111c-2.73066667 14.90488889-14.44977778 26.51022222-29.35466667 29.24088889l-3.072 0.56888889c-59.27822222 10.69511111-121.62844445 10.69511111-180.90666666 0l-3.072-0.56888889c-14.90488889-2.73066667-26.624-14.336-29.35466667-29.24088889l-17.97688889-97.16622222c-40.84622222-15.47377778-78.73422222-37.43288889-112.64-65.30844445l-93.184 33.10933334c-14.22222222 5.00622222-30.15111111 0.79644445-39.936-10.80888889l-2.048-2.38933333c-39.59466667-46.76266667-70.08711111-99.55555555-90.68088888-156.89955556l-1.024-2.95822222c-5.12-14.22222222-0.91022222-30.15111111 10.58133333-40.04977778l75.43466667-64.39822222c-3.52711111-21.39022222-5.23377778-43.23555555-5.23377778-64.96711112 0-21.84533333 1.70666667-43.69066667 5.23377778-64.9671111L42.09777778 254.86222222000004c-11.49155555-9.78488889-15.70133333-25.71377778-10.58133333-40.04977777l1.024-2.95822223c20.59377778-57.344 51.08622222-110.25066667 90.68088888-156.89955555l2.048-2.38933334c9.78488889-11.49155555 25.6-15.81511111 39.936-10.80888888l93.184 33.10933333c33.90577778-27.87555555 71.79377778-49.94844445 112.64-65.30844445l17.97688889-97.16622222c2.73066667-14.90488889 14.44977778-26.51022222 29.35466667-29.24088889l3.072-0.56888889c29.696-5.34755555 60.07466667-8.07822222 90.45333333-8.07822222 30.37866667 0 60.87111111 2.73066667 90.45333333 8.07822222l3.072 0.56888889c14.90488889 2.73066667 26.624 14.336 29.35466667 29.24088889l17.86311111 96.71111111c41.18755555 15.47377778 79.30311111 37.43288889 113.43644445 65.536l92.50133333-32.88177777c14.22222222-5.00622222 30.15111111-0.79644445 39.936 10.80888888l2.048 2.38933334c39.59466667 46.76266667 70.08711111 99.55555555 90.68088889 156.89955555l1.024 2.95822223c5.12 13.99466667 0.91022222 29.92355555-10.58133333 39.82222222zM826.368 436.45155555c2.84444445-17.18044445 4.32355555-34.816 4.32355555-52.45155555s-1.47911111-35.27111111-4.32355555-52.45155555l-7.50933333-45.6248889 84.992-72.704c-12.85688889-29.696-29.12711111-57.68533333-48.46933334-83.74044444L749.79555555 166.91200000000003l-35.72622222-29.35466667c-27.19288889-22.30044445-57.45777778-39.82222222-90.22577778-52.11022222l-43.34933333-16.27022222-20.36622222-110.36444444c-31.97155555-3.64088889-64.62577778-3.64088889-96.71111111 0l-20.36622222 110.592-43.008 16.49777777c-32.42666667 12.288-62.57777778 29.80977778-89.54311112 51.99644445l-35.72622222 29.46844444-106.26844444-37.77422222c-19.34222222 26.05511111-35.49866667 54.15822222-48.46933334 83.74044444l85.90222223 73.38666667-7.39555556 45.51111111c-2.73066667 16.95288889-4.20977778 34.47466667-4.20977777 51.76888889 0 17.408 1.36533333 34.816 4.20977777 51.76888889l7.39555556 45.51111111-85.90222223 73.38666667c12.85688889 29.696 29.12711111 57.68533333 48.46933334 83.74044444l106.26844444-37.77422222 35.72622222 29.46844444c26.96533333 22.18666667 57.11644445 39.70844445 89.54311112 51.99644445l43.12177778 16.27022222 20.36622222 110.592c31.97155555 3.64088889 64.62577778 3.64088889 96.71111111 0l20.36622222-110.36444445 43.34933333-16.27022222c32.65422222-12.288 63.03288889-29.80977778 90.22577778-52.11022222l35.72622222-29.35466666 105.58577778 37.43288888c19.34222222-26.05511111 35.49866667-54.15822222 48.46933334-83.74044444L818.97244445 481.84888889l7.39555555-45.39733334zM512 595.6266666700001c-110.592 0-200.24888889-89.65688889-200.24888889-200.24888889s89.65688889-200.24888889 200.24888889-200.24888889 200.24888889 89.65688889 200.24888889 200.24888889-89.65688889 200.24888889-200.24888889 200.24888889z m90.112-290.36088889C577.99111111 281.25866667 546.01955555 267.94666667 512 267.94666667c-34.01955555 0-65.99111111 13.312-90.112 37.31911111C397.88088889 329.38666666999995 384.56888889 361.35822222 384.56888889 395.37777778c0 34.01955555 13.312 65.99111111 37.31911111 90.112C446.00888889 509.61066667 477.98044445 522.8088888899999 512 522.8088888899999c34.01955555 0 65.99111111-13.19822222 90.112-37.31911111C626.11911111 461.36888889 639.43111111 429.39733333 639.43111111 395.37777778c0-34.01955555-13.312-65.99111111-37.31911111-90.112z"  horiz-adv-x="1024" />

    
    <glyph glyph-name="export" unicode="&#59282;" d="M968.68882963 86.17528889000005h-65.29327408c-5.09724445 0-9.34494815-4.2477037-9.34494814-9.34494814v-75.00231112H129.82802963V766.17197037h764.34394074v-75.00231112c0-5.09724445 4.2477037-9.34494815 9.34494815-9.34494814h65.29327407c5.09724445 0 9.34494815 4.12634075 9.34494816 9.34494814V812.77534815c0 20.6317037-16.62672592 37.25842963-37.25842964 37.25842963H83.22465185c-20.6317037 0-37.25842963-16.62672592-37.25842963-37.25842963v-857.5506963c0-20.6317037 16.62672592-37.25842963 37.25842963-37.25842963h857.5506963c20.6317037 0 37.25842963 16.62672592 37.25842963 37.25842963V76.83034075c0 5.21860741-4.2477037 9.34494815-9.34494815 9.34494814zM991.26234075 391.64586667L819.0482963 527.5723851800001c-6.43223703 5.09724445-15.77718518 0.48545185-15.77718519-7.64586666v-92.23585185H422.19140741c-5.33997037 0-9.70903703-4.36906667-9.70903704-9.70903704v-67.96325926c0-5.33997037 4.36906667-9.70903703 9.70903704-9.70903704h381.0797037v-92.23585185c0-8.13131852 9.46631111-12.74311111 15.77718519-7.64586666l172.21404445 135.92651851c4.97588148 3.88361482 4.97588148 11.40811852 0 15.29173334z"  horiz-adv-x="1024" />

    
    <glyph glyph-name="down-square" unicode="&#59283;" d="M504.11140741 205.96053332999998c3.88361482-5.33997037 11.77220741-5.33997037 15.65582222 0l216.02607407 298.55288889c4.61179259 6.43223703 0 15.4130963-7.88859259 15.4130963H670.98548148c-12.37902222 0-24.15122963-5.94678518-31.4330074-16.01991111L512 327.44485925000004 384.32616297 503.90660741c-7.28177778 10.07312592-18.93262222 16.01991111-31.43300742 16.01991111H295.97392592c-7.88859259 0-12.50038518-8.98085925-7.88859259-15.4130963l216.02607408-298.55288889zM958.6157037 869.45185185H65.3842963c-21.48124445 0-38.83614815-17.3549037-38.83614815-38.83614815v-893.2314074c0-21.48124445 17.3549037-38.83614815 38.83614815-38.83614815h893.2314074c21.48124445 0 38.83614815 17.3549037 38.83614815 38.83614815V830.6157037c0 21.48124445-17.3549037 38.83614815-38.83614815 38.83614815z m-48.54518518-883.52237037H113.92948148V782.07051852h796.14103704v-796.14103704z"  horiz-adv-x="1024" />

    
    <glyph glyph-name="up-square" unicode="&#59289;" d="M295.97392592 248.07348148000005h56.91922963c12.37902222 0 24.15122963 5.94678518 31.43300742 16.01991111L512 440.55514075l127.67383703-176.46174816c7.28177778-10.07312592 18.93262222-16.01991111 31.43300742-16.01991111H728.02607408c7.88859259 0 12.50038518 8.98085925 7.88859259 15.4130963l-216.02607408 298.55288889c-3.88361482 5.33997037-11.77220741 5.33997037-15.65582222 0l-216.02607407-298.55288889c-4.73315555-6.43223703-0.12136297-15.4130963 7.76722962-15.4130963zM958.6157037 869.45185185H65.3842963c-21.48124445 0-38.83614815-17.3549037-38.83614815-38.83614815v-893.2314074c0-21.48124445 17.3549037-38.83614815 38.83614815-38.83614815h893.2314074c21.48124445 0 38.83614815 17.3549037 38.83614815 38.83614815V830.6157037c0 21.48124445-17.3549037 38.83614815-38.83614815 38.83614815z m-48.54518518-883.52237037H113.92948148V782.07051852h796.14103704v-796.14103704z"  horiz-adv-x="1024" />

    
    <glyph glyph-name="calculator" unicode="&#59290;" d="M195.48539259 535.7037037H278.98311111v-83.49771852c0-2.18453333 2.18453333-3.88361482 4.85451852-3.88361481h58.25422222c2.66998518 0 4.85451852 1.69908148 4.85451852 4.00497778V535.7037037h83.49771852c2.18453333 0 3.88361482 2.18453333 3.88361481 4.85451852v58.25422223c0 2.66998518-1.69908148 4.85451852-4.00497778 4.85451852H346.94637037v83.49771851c0 2.18453333-2.18453333 3.88361482-4.85451852 3.88361482h-58.25422222c-2.66998518 0-4.85451852-1.69908148-4.85451852-3.88361482V603.66696297h-83.49771852c-2.18453333 0-3.88361482-2.18453333-3.88361481-4.85451852v-58.25422223c0-2.66998518 1.69908148-4.85451852 3.88361481-4.85451852zM593.55591111 535.7037037h234.9586963c2.18453333 0 3.88361482 2.18453333 3.88361481 4.85451852v58.25422223c0 2.66998518-1.69908148 4.85451852-4.00497777 4.85451852H593.55591111c-2.18453333 0-3.88361482-2.18453333-3.88361481-4.85451852v-58.25422223c0-2.66998518 1.69908148-4.85451852 3.88361481-4.85451852zM593.55591111 214.09185185h234.9586963c2.18453333 0 3.88361482 2.18453333 3.88361481 4.85451852v58.25422222c0 2.66998518-1.69908148 4.85451852-4.00497777 4.85451852H593.55591111c-2.18453333 0-3.88361482-2.18453333-3.88361481-4.85451852v-58.25422222c0-2.66998518 1.69908148-4.85451852 3.88361481-4.85451852zM593.55591111 87.87437036999995h234.9586963c2.18453333 0 3.88361482 2.18453333 3.88361481 4.85451852v58.25422222c0 2.66998518-1.69908148 4.85451852-4.00497777 4.85451852H593.55591111c-2.18453333 0-3.88361482-2.18453333-3.88361481-4.85451852v-58.25422222c0-2.66998518 1.69908148-4.85451852 3.88361481-4.85451852zM356.04859259 186.17837037000004l74.27413333 90.90085926c5.21860741 6.31087408 0.84954075 15.89854815-7.16041481 15.89854815H361.50992592c-2.79134815 0-5.46133333-1.21362963-7.16041481-3.51952593l-41.26340741-50.4869926-41.2634074 50.4869926c-1.82044445 2.18453333-4.49042963 3.51952592-7.16041482 3.51952593h-61.77374815c-8.00995555 0-12.37902222-9.58767408-7.16041481-15.89854815l74.27413333-90.90085926-76.09457777-93.20675555c-5.33997037-6.31087408-0.9709037-15.89854815 7.03905184-15.89854815h61.65238519c2.79134815 0 5.46133333 1.21362963 7.16041481 3.51952592l43.08385186 52.79288889 43.08385185-52.79288889c1.82044445-2.18453333 4.49042963-3.51952592 7.16041482-3.51952592h61.65238518c8.00995555 0 12.37902222 9.58767408 7.16041482 15.89854815L356.04859259 186.17837037000004zM958.6157037 869.45185185H65.3842963c-21.48124445 0-38.83614815-17.3549037-38.83614815-38.83614815v-893.2314074c0-21.48124445 17.3549037-38.83614815 38.83614815-38.83614815h893.2314074c21.48124445 0 38.83614815 17.3549037 38.83614815 38.83614815V830.6157037c0 21.48124445-17.3549037 38.83614815-38.83614815 38.83614815z m-43.69066667-888.37688888H109.07496297V786.92503703h805.85007406v-805.85007406z"  horiz-adv-x="1024" />

    
    <glyph glyph-name="check-square" unicode="&#59304;" d="M416.24462222 207.17416297c15.4130963-21.48124445 47.33155555-21.48124445 62.74465186 0l255.5904 354.37985185c4.61179259 6.43223703 0 15.4130963-7.8885926 15.41309629H669.77185185c-12.37902222 0-24.15122963-5.94678518-31.4330074-16.14127408L447.67762963 296.25457778l-86.41042963 119.9066074c-7.28177778 10.07312592-18.93262222 16.14127408-31.43300741 16.14127407H272.91496297c-7.88859259 0-12.50038518-8.98085925-7.8885926-15.41309628l151.21825185-209.7152zM958.6157037 869.45185185H65.3842963c-21.48124445 0-38.83614815-17.3549037-38.83614815-38.83614815v-893.2314074c0-21.48124445 17.3549037-38.83614815 38.83614815-38.83614815h893.2314074c21.48124445 0 38.83614815 17.3549037 38.83614815 38.83614815V830.6157037c0 21.48124445-17.3549037 38.83614815-38.83614815 38.83614815z m-48.54518518-883.52237037H113.92948148V782.07051852h796.14103704v-796.14103704z"  horiz-adv-x="1024" />

    
    <glyph glyph-name="user" unicode="&#59310;" d="M932.52266667 78.65078517999996c-22.9376 54.37060741-55.94832592 103.15851852-97.81854815 145.02874074-41.87022222 41.87022222-90.65813333 74.75958518-145.02874074 97.81854816-0.48545185 0.24272592-0.9709037 0.36408889-1.45635556 0.60681481C763.82814815 376.71822222000003 812.98014815 465.67727408 812.98014815 566.04444445c0 166.26725925-134.71288889 300.98014815-300.98014815 300.98014814S211.01985185 732.3117037 211.01985185 566.04444445c0-100.36717037 49.152-189.32622222 124.76112593-244.06091853-0.48545185-0.24272592-0.9709037-0.36408889-1.45635556-0.60681481-54.37060741-22.9376-103.15851852-55.82696297-145.02874074-97.81854814-41.87022222-41.87022222-74.75958518-90.65813333-97.81854815-145.02874075C68.90382222 25.37244444999999 56.88888889-31.061333330000025 55.67525925-89.07282963c-0.12136297-5.46133333 4.2477037-9.95176297 9.70903705-9.95176296h72.81777778c5.33997037 0 9.58767408 4.2477037 9.70903703 9.46631111 2.42725925 93.69220741 40.04977778 181.43762963 106.55668148 247.94453333 68.8128 68.8128 160.19911111 106.67804445 257.53220741 106.67804445s188.71940741-37.86524445 257.53220741-106.67804445C836.03911111 91.87934815000006 873.66162963 4.133925920000024 876.08888889-89.55828148c0.12136297-5.33997037 4.36906667-9.46631111 9.70903703-9.46631111h72.81777778c5.46133333 0 9.8304 4.49042963 9.70903705 9.95176296-1.21362963 58.0114963-13.22856297 114.44527408-35.80207408 167.72361481zM512 357.30014815000004c-55.7056 0-108.1344 21.72397037-147.57736297 61.16693333S303.2557037 510.33884445 303.2557037 566.04444445c0 55.7056 21.72397037 108.1344 61.16693333 147.57736296S456.2944 774.78874075 512 774.78874075s108.1344-21.72397037 147.57736297-61.16693334S720.7442963 621.75004445 720.7442963 566.04444445c0-55.7056-21.72397037-108.1344-61.16693333-147.57736297S567.7056 357.30014815000004 512 357.30014815000004z"  horiz-adv-x="1024" />

    
    <glyph glyph-name="chuanbobiaoxianfenxi" unicode="&#59311;" d="M998.74639013 21.529283950000035H108.10405925V829.32116543c0 5.69596839-4.66033778 10.35630617-10.35630616 10.35630618h-72.49414322c-5.69596839 0-10.35630617-4.66033778-10.35630617-10.35630618v-890.64233086c0-5.69596839 4.66033778-10.35630617 10.35630617-10.35630618h973.49278026c5.69596839 0 10.35630617 4.66033778 10.35630617 10.35630618v72.49414321c0 5.69596839-4.66033778 10.35630617-10.35630617 10.35630617zM222.02342717 125.09234569h72.4941432c5.69596839 0 10.35630617 4.66033778 10.35630616 10.35630616V321.86216297c0 5.69596839-4.66033778 10.35630617-10.35630616 10.35630617h-72.4941432c-5.69596839 0-10.35630617-4.66033778-10.35630619-10.35630617v-186.41351112c0-5.69596839 4.66033778-10.35630617 10.35630619-10.35630616zM418.79324445 125.09234569h72.4941432c5.69596839 0 10.35630617 4.66033778 10.35630618 10.35630616V549.70089876c0 5.69596839-4.66033778 10.35630617-10.35630618 10.35630618h-72.4941432c-5.69596839 0-10.35630617-4.66033778-10.35630618-10.35630618v-414.25224691c0-5.69596839 4.66033778-10.35630617 10.35630618-10.35630616zM615.56306173 125.09234569h72.49414321c5.69596839 0 10.35630617 4.66033778 10.35630617 10.35630616V448.72691358c0 5.69596839-4.66033778 10.35630617-10.35630617 10.35630617h-72.49414321c-5.69596839 0-10.35630617-4.66033778-10.35630618-10.35630617v-313.27826173c0-5.69596839 4.66033778-10.35630617 10.35630618-10.35630616zM812.33287902 125.09234569h72.4941432c5.69596839 0 10.35630617 4.66033778 10.35630617 10.35630616V653.2639604999999c0 5.69596839-4.66033778 10.35630617-10.35630617 10.35630617h-72.4941432c-5.69596839 0-10.35630617-4.66033778-10.35630619-10.35630617v-517.81530865c0-5.69596839 4.66033778-10.35630617 10.35630619-10.35630616z"  horiz-adv-x="1024" />

    
    <glyph glyph-name="file-text" unicode="&#59321;" d="M877.44 622.29333333L647.89333333 851.84c-6.4 6.4-15.04 10.02666667-24.10666666 10.02666667H170.66666667c-18.88 0-34.13333333-15.25333333-34.13333334-34.13333334v-887.46666666c0-18.88 15.25333333-34.13333333 34.13333334-34.13333334h682.66666666c18.88 0 34.13333333 15.25333333 34.13333334 34.13333334V598.0799999999999c0 9.06666667-3.62666667 17.81333333-10.02666667 24.21333333zM808.74666667 582.4H608V783.1466666700001L808.74666667 582.4z m1.92-599.46666667H213.33333333V785.06666667h322.13333334v-230.4c0-24.74666667 20.05333333-44.8 44.8-44.8h230.4v-526.93333334zM503.46666667 270.93333333H307.2c-4.69333333 0-8.53333333-3.84-8.53333333-8.53333333v-51.2c0-4.69333333 3.84-8.53333333 8.53333333-8.53333333h196.26666667c4.69333333 0 8.53333333 3.84 8.53333333 8.53333333v51.2c0 4.69333333-3.84 8.53333333-8.53333333 8.53333333zM298.66666667 407.46666667v-51.2c0-4.69333333 3.84-8.53333333 8.53333333-8.53333334h409.6c4.69333333 0 8.53333333 3.84 8.53333333 8.53333334v51.2c0 4.69333333-3.84 8.53333333-8.53333333 8.53333333H307.2c-4.69333333 0-8.53333333-3.84-8.53333333-8.53333333z"  horiz-adv-x="1024" />

    
    <glyph glyph-name="snippets" unicode="&#59324;" d="M876.08888889 839.11111111H753.20888889V884.62222222c0 5.00622222-4.096 9.10222222-9.10222222 9.10222223h-63.71555556c-5.00622222 0-9.10222222-4.096-9.10222222-9.10222223v-45.51111111H498.34666667V884.62222222c0 5.00622222-4.096 9.10222222-9.10222222 9.10222223h-63.71555556c-5.00622222 0-9.10222222-4.096-9.10222222-9.10222223v-45.51111111H293.54666667c-20.13866667 0-36.40888889-16.27022222-36.40888889-36.40888889v-136.53333333h-109.22666667c-20.13866667 0-36.40888889-16.27022222-36.40888889-36.40888889v-719.07555555c0-20.13866667 16.27022222-36.40888889 36.40888889-36.4088889h582.54222222c20.13866667 0 36.40888889 16.27022222 36.40888889 36.4088889v109.22666666h109.22666667c20.13866667 0 36.40888889 16.27022222 36.40888889 36.40888889V802.70222222c0 20.13866667-16.27022222 36.40888889-36.40888889 36.40888889zM684.94222222-43.804444450000005H193.42222222V584.24888889h248.03555556v-197.97333334c0-25.14488889 20.36622222-45.51111111 45.51111111-45.5111111h197.97333333v-384.5688889z m0 457.38666667H514.27555555V584.24888889h0.22755556L684.94222222 413.80977778v-0.22755556z m145.63555556-311.75111111h-63.71555556V447.71555555L548.40888889 666.1688888900001H339.05777778v91.02222222h77.36888889v-36.40888889c0-5.00622222 4.096-9.10222222 9.10222222-9.10222222h63.71555556c5.00622222 0 9.10222222 4.096 9.10222222 9.10222222v36.40888889h172.94222222v-36.40888889c0-5.00622222 4.096-9.10222222 9.10222222-9.10222222h63.71555556c5.00622222 0 9.10222222 4.096 9.10222222 9.10222222v36.40888889h77.36888889v-655.36z"  horiz-adv-x="1024" />

    
    <glyph glyph-name="experiment" unicode="&#59331;" d="M560.54518518 432.54518518m-48.54518518 0a48.54518518 48.54518518 0 1 1 97.09037037 0 48.54518518 48.54518518 0 1 1-97.09037037 0ZM957.40207408 4.255288889999974L735.67194075 578.18074075V789.3522963H822.68918518v82.52681481H201.31081482v-82.52681481h87.01724443v-211.17155555L66.59792592 4.255288889999974c-3.39816297-8.98085925-5.21860741-18.44717037-5.2186074-28.03484444 0-42.84112592 34.83117037-77.6722963 77.6722963-77.6722963h745.89677036c9.58767408 0 19.05398518 1.82044445 28.03484445 5.2186074 40.04977778 15.4130963 59.9533037 60.43875555 44.41884445 100.48853334zM370.85487408 562.76764445V786.92503703h282.29025184v-224.15739258L763.46405925 277.20059259000004c-25.12213333 6.43223703-51.09380741 9.70903703-77.55093333 9.70903704-74.27413333 0-144.66465185-26.09303703-200.61297777-72.81777778-41.14204445-34.22435555-92.59994075-53.27834075-147.21327407-53.27834074-39.68568889 0-77.79365925 10.07312592-111.4112 28.76302222l144.1792 373.19111112zM146.09066667-18.92503703l50.60835555 130.82927406c43.32657778-21.9666963 91.50767408-33.7389037 141.50921481-33.7389037 74.27413333 0 144.66465185 26.09303703 200.61297779 72.81777778 41.14204445 34.22435555 92.59994075 53.27834075 147.21327407 53.27834074 42.47703703 0 83.01226667-11.52948148 118.45025186-32.88936296L877.90933333-18.92503703h-731.81866666z"  horiz-adv-x="1024" />

    
    <glyph glyph-name="unlock" unicode="&#59337;" d="M900.36148148 442.25422222H293.54666667V714.10725925c0 37.50115555 30.4621037 67.96325925 67.96325925 67.96325927h300.98014816c37.50115555 0 67.96325925-30.4621037 67.96325925-67.96325927v-82.5268148c0-5.33997037 4.36906667-9.70903703 9.70903704-9.70903704h67.96325926c5.33997037 0 9.70903703 4.36906667 9.70903704 9.70903704v82.5268148c0 85.80361482-69.54097778 155.34459259-155.34459259 155.3445926H361.50992592c-85.80361482 0-155.34459259-69.54097778-155.34459259-155.3445926v-271.85303703h-82.52681481c-21.48124445 0-38.83614815-17.3549037-38.83614815-38.83614814v-466.03377778c0-21.48124445 17.3549037-38.83614815 38.83614815-38.83614815h776.72296296c21.48124445 0 38.83614815 17.3549037 38.83614815 38.83614815V403.41807408c0 21.48124445-17.3549037 38.83614815-38.83614815 38.83614814z m-48.54518518-456.32474074H172.1837037V354.87288889h679.6325926v-368.94340741zM478.01837037 154.62400000000002v-64.32237037c0-5.33997037 4.36906667-9.70903703 9.70903704-9.70903704h48.54518518c5.33997037 0 9.70903703 4.36906667 9.70903704 9.70903704v64.32237037c14.68491852 10.55857778 24.27259259 27.79211852 24.27259259 47.33155555 0 32.16118518-26.09303703 58.25422222-58.25422222 58.25422223s-58.25422222-26.09303703-58.25422222-58.25422223c0-19.53943703 9.58767408-36.77297778 24.27259259-47.33155555z"  horiz-adv-x="1024" />

    
    <glyph glyph-name="lock" unicode="&#59338;" d="M900.36148148 442.25422222h-82.52681481V714.10725925c0 85.80361482-69.54097778 155.34459259-155.34459259 155.3445926H361.50992592c-85.80361482 0-155.34459259-69.54097778-155.34459259-155.3445926v-271.85303703h-82.52681481c-21.48124445 0-38.83614815-17.3549037-38.83614815-38.83614814v-466.03377778c0-21.48124445 17.3549037-38.83614815 38.83614815-38.83614815h776.72296296c21.48124445 0 38.83614815 17.3549037 38.83614815 38.83614815V403.41807408c0 21.48124445-17.3549037 38.83614815-38.83614815 38.83614814zM293.54666667 714.10725925c0 37.50115555 30.4621037 67.96325925 67.96325925 67.96325927h300.98014816c37.50115555 0 67.96325925-30.4621037 67.96325925-67.96325927v-271.85303703H293.54666667V714.10725925z m558.26962963-728.17777777H172.1837037V354.87288889h679.6325926v-368.94340741zM478.01837037 154.62400000000002v-64.32237037c0-5.33997037 4.36906667-9.70903703 9.70903704-9.70903704h48.54518518c5.33997037 0 9.70903703 4.36906667 9.70903704 9.70903704v64.32237037c14.68491852 10.55857778 24.27259259 27.79211852 24.27259259 47.33155555 0 32.16118518-26.09303703 58.25422222-58.25422222 58.25422223s-58.25422222-26.09303703-58.25422222-58.25422223c0-19.53943703 9.58767408-36.77297778 24.27259259-47.33155555z"  horiz-adv-x="1024" />

    
    <glyph glyph-name="huopanmail" unicode="&#59358;" d="M985.31555555 784.49777778H38.68444445c-20.13866667 0-36.40888889-16.27022222-36.4088889-36.40888889v-728.17777778c0-20.13866667 16.27022222-36.40888889 36.4088889-36.40888889h946.6311111c20.13866667 0 36.40888889 16.27022222 36.4088889 36.40888889V748.08888889c0 20.13866667-16.27022222 36.40888889-36.4088889 36.40888889z m-45.5111111-126.06577778V65.42222221999998H84.19555555V658.432l-31.40266666 24.46222222 44.71466666 57.45777778 48.6968889-37.888h731.70488888l48.69688889 37.888 44.71466667-57.45777778-31.51644444-24.46222222zM877.90933333 702.57777778L512 418.13333333 146.09066667 702.57777778l-48.69688889 37.888-44.71466667-57.45777778 31.40266667-24.46222222 388.66488889-302.19377778c22.98311111-17.86311111 55.18222222-17.86311111 78.16533333 0L939.80444445 658.432l31.40266666 24.46222222-44.71466666 57.45777778-48.58311112-37.77422222z"  horiz-adv-x="1024" />

    
    <glyph glyph-name="edit" unicode="&#59361;" d="M203.37398518 92.72888889000001c2.42725925 0 4.85451852 0.24272592 7.28177779 0.60681481L414.78826667 129.13777777999996c2.42725925 0.48545185 4.73315555 1.57771852 6.43223703 3.39816297l514.4576 514.4576c4.73315555 4.73315555 4.73315555 12.37902222 0 17.11217777L733.97285925 865.93232592c-2.3058963 2.3058963-5.33997037 3.51952592-8.61677036 3.51952593s-6.31087408-1.21362963-8.61677037-3.51952593L202.28171852 351.47472591999997c-1.82044445-1.82044445-2.91271111-4.00497778-3.39816297-6.43223703l-35.80207407-204.13250371c-2.3058963-13.47128889 1.82044445-26.57848889 11.40811852-36.16616296 8.00995555-7.76722963 18.08308148-12.01493333 28.88438518-12.01493333z m81.79863704 211.65700741L725.35608889 744.448l88.95905186-88.95905185-440.18346667-440.0621037-107.89167408-19.0539852 18.93262222 108.01303705zM958.6157037-9.216000000000008H65.3842963c-21.48124445 0-38.83614815-17.3549037-38.83614815-38.83614815v-43.69066667c0-5.33997037 4.36906667-9.70903703 9.70903703-9.70903703h951.48562964c5.33997037 0 9.70903703 4.36906667 9.70903703 9.70903703v43.69066667c0 21.48124445-17.3549037 38.83614815-38.83614815 38.83614815z"  horiz-adv-x="1024" />

    
    <glyph glyph-name="indent" unicode="&#59379;" d="M385.78251852 468.95407408h582.54222223c5.33997037 0 9.70903703 4.36906667 9.70903703 9.70903703v67.96325926c0 5.33997037-4.36906667 9.70903703-9.70903703 9.70903704H385.78251852c-5.33997037 0-9.70903703-4.36906667-9.70903704-9.70903704v-67.96325926c0-5.33997037 4.36906667-9.70903703 9.70903704-9.70903703zM376.07348148 221.37362962999998c0-5.33997037 4.36906667-9.70903703 9.70903704-9.70903704h582.54222223c5.33997037 0 9.70903703 4.36906667 9.70903703 9.70903704v67.96325926c0 5.33997037-4.36906667 9.70903703-9.70903703 9.70903703H385.78251852c-5.33997037 0-9.70903703-4.36906667-9.70903704-9.70903703v-67.96325926zM987.74281482 811.1976296299999H36.25718518c-5.33997037 0-9.70903703-4.36906667-9.70903703-9.70903704v-67.96325926c0-5.33997037 4.36906667-9.70903703 9.70903703-9.70903703h951.48562964c5.33997037 0 9.70903703 4.36906667 9.70903703 9.70903703v67.96325926c0 5.33997037-4.36906667 9.70903703-9.70903703 9.70903704zM987.74281482 44.183703700000024H36.25718518c-5.33997037 0-9.70903703-4.36906667-9.70903703-9.70903703v-67.96325926c0-5.33997037 4.36906667-9.70903703 9.70903703-9.70903704h951.48562964c5.33997037 0 9.70903703 4.36906667 9.70903703 9.70903704v67.96325926c0 5.33997037-4.36906667 9.70903703-9.70903703 9.70903703zM63.44248889 226.10678517999997L253.1328 375.50459259c5.46133333 4.2477037 5.46133333 12.50038518 0 16.86945186L63.44248889 541.89321482c-7.03905185 5.5826963-17.47626667 0.60681482-17.47626667-8.37404445v-298.91697778c0-8.98085925 10.31585185-14.0781037 17.47626667-8.49540741z"  horiz-adv-x="1024" />

    
    <glyph glyph-name="outdent" unicode="&#59380;" d="M385.78251852 468.95407408h582.54222223c5.33997037 0 9.70903703 4.36906667 9.70903703 9.70903703v67.96325926c0 5.33997037-4.36906667 9.70903703-9.70903703 9.70903704H385.78251852c-5.33997037 0-9.70903703-4.36906667-9.70903704-9.70903704v-67.96325926c0-5.33997037 4.36906667-9.70903703 9.70903704-9.70903703zM376.07348148 221.37362962999998c0-5.33997037 4.36906667-9.70903703 9.70903704-9.70903704h582.54222223c5.33997037 0 9.70903703 4.36906667 9.70903703 9.70903704v67.96325926c0 5.33997037-4.36906667 9.70903703-9.70903703 9.70903703H385.78251852c-5.33997037 0-9.70903703-4.36906667-9.70903704-9.70903703v-67.96325926zM987.74281482 811.1976296299999H36.25718518c-5.33997037 0-9.70903703-4.36906667-9.70903703-9.70903704v-67.96325926c0-5.33997037 4.36906667-9.70903703 9.70903703-9.70903703h951.48562964c5.33997037 0 9.70903703 4.36906667 9.70903703 9.70903703v67.96325926c0 5.33997037-4.36906667 9.70903703-9.70903703 9.70903704zM987.74281482 44.183703700000024H36.25718518c-5.33997037 0-9.70903703-4.36906667-9.70903703-9.70903703v-67.96325926c0-5.33997037 4.36906667-9.70903703 9.70903703-9.70903704h951.48562964c5.33997037 0 9.70903703 4.36906667 9.70903703 9.70903704v67.96325926c0 5.33997037-4.36906667 9.70903703-9.70903703 9.70903703zM30.67448889 375.62595554999996L220.3648 226.22814815000004c7.03905185-5.5826963 17.47626667-0.60681482 17.47626667 8.37404444V533.39780741c0 8.98085925-10.31585185 13.95674075-17.47626667 8.37404444L30.67448889 392.37404445c-5.46133333-4.2477037-5.46133333-12.50038518 0-16.7480889z"  horiz-adv-x="1024" />

    
    <glyph glyph-name="close" unicode="&#59388;" d="M570.93688889 384l298.66666666 356.01066667c5.00622222 5.91644445 0.79644445 14.90488889-6.94044444 14.90488888h-90.79466666c-5.34755555 0-10.46755555-2.38933333-13.99466667-6.48533333L511.54488889 454.76977778 265.216 748.43022222c-3.41333333 4.096-8.53333333 6.48533333-13.99466667 6.48533333H160.42666667c-7.73688889 0-11.94666667-8.98844445-6.94044445-14.90488888L452.15288889 384 153.48622222 27.989333330000022c-5.00622222-5.91644445-0.79644445-14.90488889 6.94044445-14.90488888h90.79466666c5.34755555 0 10.46755555 2.38933333 13.99466667 6.48533333l246.32888889 293.66044444 246.32888889-293.66044444c3.41333333-4.096 8.53333333-6.48533333 13.99466667-6.48533333h90.79466666c7.73688889 0 11.94666667 8.98844445 6.94044444 14.90488888L570.93688889 384z"  horiz-adv-x="1024" />

    
    <glyph glyph-name="chuan" unicode="&#58891;" d="M344.926316 96.47157900000002a19.402105 19.402105 0 0 0-18.054737 12.395789L216.926316 386.155789a19.671579 19.671579 0 0 0 0 15.36 19.402105 19.402105 0 0 0 11.856842 9.431579l289.414737 99.705264a19.402105 19.402105 0 0 0 17.515789-2.694737 19.671579 19.671579 0 0 0 8.084211-15.898948v-344.926315a19.402105 19.402105 0 0 0-38.804211 0V464.842105l-244.412631-83.536842 102.4-258.425263a19.402105 19.402105 0 0 0-18.054737-26.947368z m0 0M700.631579 87.57894699999997a19.132632 19.132632 0 0 0-7.27579 1.347369 19.402105 19.402105 0 0 0-10.778947 25.330526l105.633684 267.048421-244.143158 83.536842v-313.397894a19.402105 19.402105 0 1 0-38.80421 0V491.789474a19.402105 19.402105 0 0 0 26.947368 18.32421L820.277895 410.947368a19.402105 19.402105 0 0 0 11.856842-26.947368l-113.178948-285.911579A19.402105 19.402105 0 0 0 700.631579 87.57894699999997z m0 0M720.572632 85.42315799999994a426.576842 426.576842 0 0 0-120.993685 21.018947 412.025263 412.025263 0 0 1-88.926315 18.054737 238.484211 238.484211 0 0 1-77.877895-11.856842 370.526316 370.526316 0 0 0-107.789474-16.437895 215.578947 215.578947 0 0 0-143.898947 58.745263 19.402105 19.402105 0 0 0 26.947368 26.947369 161.684211 161.684211 0 0 1 34.492632-23.444211 173.271579 173.271579 0 0 1 84.345263-23.44421 331.722105 331.722105 0 0 1 96.202105 15.090526 272.976842 272.976842 0 0 0 88.926316 13.204211 450.56 450.56 0 0 0 97.28-19.402106 388.850526 388.850526 0 0 1 110.484211-19.402105 139.587368 139.587368 0 0 1 78.147368 22.905263 123.957895 123.957895 0 0 1 15.629474 12.126316 19.725474 19.725474 0 0 0 26.947368-28.833684 176.505263 176.505263 0 0 0-119.915789-45.271579z m12.126315 323.368421a19.402105 19.402105 0 0 0-19.402105 19.402105v147.402105h-377.263158v-31.797894a19.402105 19.402105 0 1 0-38.80421 0v51.2a19.402105 19.402105 0 0 0 19.402105 19.402105H732.968421a19.402105 19.402105 0 0 0 19.402105-19.402105v-166.265263a19.402105 19.402105 0 0 0-19.402105-19.402106z m-416.875789 0a19.402105 19.402105 0 0 0-19.402105 19.402105v34.492632a19.402105 19.402105 0 1 0 38.80421 0v-33.684211a19.402105 19.402105 0 0 0-19.402105-19.402105z m0 0M637.035789 575.595789a19.402105 19.402105 0 0 0-19.402105 19.402106V665.330526H431.157895v-70.332631a19.402105 19.402105 0 1 0-38.804211 0V684.732632a19.402105 19.402105 0 0 0 19.402105 19.402105h225.010527a19.402105 19.402105 0 0 0 19.402105-19.402105v-89.734737a19.402105 19.402105 0 0 0-19.402105-19.402106z m0 0M1024 384A512 512 0 1 0 512 896a512 512 0 0 0 512-512zM512 852.075789A468.345263 468.345263 0 1 1 981.423158 384 468.075789 468.075789 0 0 1 512 852.075789z"  horiz-adv-x="1024" />

    
    <glyph glyph-name="diannao" unicode="&#58900;" d="M1026.14205667 869.45185223H94.99685888C57.27724999 869.45185223 26.54814777 838.48002333 26.54814777 800.51768889v-578.27024555c0-37.96233443 30.72910222-68.93416334 68.40016668-68.93416334h426.61508665v-130.05255111H345.44147001a38.01088 38.01088 0 0 1-37.76815446-38.05942556c0-20.97152 16.99081443-38.10796999 37.76815446-38.10797h428.55689444a38.01088 38.01088 0 0 1 37.76815445 38.10797 38.01088 38.01088 0 0 1-37.76815445 38.05942556h-176.85011002v130.05255111h428.99380224c37.67106333 0 68.40016555 30.97182777 68.40016555 68.93416334V800.51768889C1094.54222222 838.48002333 1063.81312 869.45185223 1026.14205667 869.45185223z m-7.18468778-76.21594112v-563.75523556H102.1330011V793.23591111h916.82436779z"  horiz-adv-x="1109" />

    
    <glyph glyph-name="gongdan" unicode="&#60471;" d="M704 480H320a32 32 0 0 1 0-64h384a32 32 0 0 1 0 64zM704 288H320a32 32 0 0 1 0-64h384a32 32 0 0 1 0 64zM832 864H192C139.072 864 96 820.928 96 768v-768c0-52.928 43.072-96 96-96h640c52.928 0 96 43.072 96 96V768c0 52.928-43.072 96-96 96zM320 800h384v-96H320V800z m544-800a32 32 0 0 0-32-32H192c-17.632 0-32 14.336-32 32V768c0 17.632 14.368 32 32 32h64v-96c0-35.296 28.704-64 64-64h384c35.296 0 64 28.704 64 64V800h64c17.664 0 32-14.368 32-32v-768z"  horiz-adv-x="1024" />

    
    <glyph glyph-name="zhishiku" unicode="&#58899;" d="M682.71786667 429.96167111c-1.98200889 0-3.91623111-0.20024889-5.79584-0.57116444a15.13699555 15.13699555 0 0 1-4.06186667 0.57116444H385.10136889c-0.85219555 0-1.67367111-0.08760889-2.47011556-0.21845333a30.57095111 30.57095111 0 0 1-3.57262222 0.21845333c-16.88234667 0-30.55388445-14.03676445-30.55388444-31.35146666 0-17.31811555 13.67153778-31.35488 30.55274666-31.35488 1.19921778 0 2.39388445 0.08078222 3.57262222 0.22414222 0.79644445-0.13653333 1.61905778-0.22414222 2.47125334-0.22414222h287.76106666c1.38808889 0 2.75911111 0.21162667 4.0607289 0.57002666 1.87847111-0.36977778 3.81269333-0.57002667 5.79584-0.57002666 16.86755555 0 30.53795555 14.03676445 30.53795555 31.35488-0.00227555 17.31470222-13.6704 31.35146667-30.53795555 31.35146666z m116.36167111-132.78094222c-1.98883555 0-3.94012445-0.20138667-5.82769778-0.56433778a14.81386667 14.81386667 0 0 1-4.06072889 0.56433778H385.09454222c-0.85333333 0-1.66798222-0.08760889-2.46328889-0.21390222a31.02492445 31.02492445 0 0 1-3.58058666 0.21390222c-16.88120889 0-30.54592-14.03221333-30.54592-31.35488 0-17.30901333 13.67153778-31.35260445 30.54592-31.35260444 1.20604445 0 2.40071111 0.08760889 3.58058666 0.22528 0.79644445-0.13767111 1.60881778-0.22528 2.46328889-0.22528h404.09656889c1.41425778 0 2.78641778 0.21276445 4.06186667 0.5779911 1.88643555-0.37774222 3.83772445-0.57799111 5.82656-0.5779911 16.86186667 0 30.52999111 14.04359111 30.52999111 31.35260444 0 17.32266667-13.66129778 31.35488-30.52999111 31.35488z m0-132.77866667c-1.98883555 0-3.94012445-0.20138667-5.82769778-0.56547555a14.81386667 14.81386667 0 0 1-4.06072889 0.56433778H385.09454222c-0.85333333 0-1.66798222-0.07281778-2.46328889-0.21276445a30.76664889 30.76664889 0 0 1-3.58058666 0.21276445c-16.88120889 0-30.54592-14.0288-30.54592-31.35146667 0-17.30901333 13.67153778-31.35488 30.54592-31.35488 1.20604445 0 2.40071111 0.08874667 3.58058666 0.22755555 0.79644445-0.13880889 1.60881778-0.22755555 2.46328889-0.22755555h404.09656889c1.41425778 0 2.78641778 0.21617778 4.06186667 0.57799111 1.88643555-0.37660445 3.83772445-0.57799111 5.82656-0.57799111 16.86186667 0 30.52999111 14.04472889 30.52999111 31.35488 0 17.32152889-13.66129778 31.35146667-30.52999111 31.35146667z m222.72910222-225.35736889V831.52327111s1.68049778 63.46979555-72.66076445 63.46979556H69.90506667c-71.03715555 0-72.69262222-63.46979555-72.69262222-63.46979556v-892.55822222c0 0.07964445-0.22641778-63.47662222 72.69262222-63.47662222h207.31448888c0.67584 0 1.34940445-0.04551111 2.01386667-0.04551112 0.74638222 0 1.47911111 0.04551111 2.23004445 0.04551112h667.67758222c75.80558222 0 72.66759111 63.55626667 72.66759111 63.55626666z m-801.85571555-3.00373333l-126.00433778-0.07964445c-31.82933333 0-35.53735111 29.2352-35.53735112 29.2352V808.83143111c0 28.02119111 35.66478222 24.47018667 35.66478223 24.47018667h125.87690667v-897.26065778z m707.584 1.09226667H282.21098667v896.17066666h320.84309333V561.12924445l96.33564445 87.99573333 97.12753777-87.99573333V833.30389333h128.76458667c36.08689778 0 34.26531555-24.58965333 34.26531556-24.58965333v-847.0016s1.76355555-24.57941333-32.01024-24.57941333z"  horiz-adv-x="1024" />

    
    <glyph glyph-name="guize1" unicode="&#60498;" d="M961.05813333 175.71839999999997c-17.74933333 12.52693333-48.0256 90.624-70.31466666 147.968l-11.84426667 30.44693333H955.73333333a34.13333333 34.13333333 0 1 1 0 68.26666667h-104.48213333C792.95146667 560.2303999999999 713.1136 702.63466666 580.26666667 727.7568V849.06666666a34.13333333 34.13333333 0 1 1-68.26666667 0v-118.784c-148.2752-16.72533333-220.0576-172.40746667-276.3776-307.88266666H68.26666667a34.13333333 34.13333333 0 0 1 0-68.26666667h138.88853333C174.86506667 278.6304 141.03893333 212.41173332999995 102.4 212.41173332999995a34.13333333 34.13333333 0 1 1 0-68.26666667c86.8352 0 132.88106667 99.39626667 178.82453333 209.98826667H512V-72.53333334000001a34.13333333 34.13333333 0 1 1 68.26666667 0V354.13333333h225.1776c7.54346667-18.8416 14.7456-37.376 21.64053333-55.12533333 44.78293333-115.26826667 74.3424-191.3856 130.83306667-191.3856a34.13333333 34.13333333 0 0 1 3.14026666 68.096zM309.69173333 422.4c47.54773333 111.68426667 104.58453333 221.9008 202.30826667 238.8992V422.4h-202.30826667z m270.57493334 0V657.23733333c87.10826667-25.46346667 148.82133333-127.62453333 196.53973333-234.83733333H580.26666667z"  horiz-adv-x="1024" />

    
    <glyph glyph-name="chuanhuopipei" unicode="&#60502;" d="M853.33333333 166.39999999999998a136.53333333 136.53333333 0 0 1-133.632-108.61226667l-339.52426666 0.06826667c-8.9088 5.9392-14.336 46.52373333-17.54453334 74.41066666h98.54293334c15.5648-20.61653333 40.07253333-34.13333333 67.8912-34.13333333a85.33333333 85.33333333 0 1 1-83.62666667 102.4h-91.98933333c-12.3904 67.34506667-40.89173333 136.53333333-130.28693334 136.53333333H68.26666667a34.13333333 34.13333333 0 1 1 0-68.26666666h154.9312c34.47466667 0 50.2784-21.0944 60.48426666-68.26666667H68.26666667a34.13333333 34.13333333 0 0 1 0-68.26666667h225.65546666c7.168-64.06826667 16.62293333-142.7456 87.72266667-142.7456h339.38773333c0.85333333 0 1.536 0.4096 2.3552 0.47786667C740.5568-65.80906666999999 791.89333333-106.66666667000004 853.33333333-106.66666667000004a136.53333333 136.53333333 0 0 1 0 273.06666667z m0-204.8a68.26666667 68.26666667 0 1 0 0.03413334 136.56746666A68.26666667 68.26666667 0 0 0 853.33333333-38.39999999999998zM68.26666667 405.33333333h410.14613333c1.4336 0 2.6624 0.64853333 4.02773333 0.8192A136.26026667 136.26026667 0 0 1 614.4 302.93333333a136.53333333 136.53333333 0 0 1 0 273.06666667 136.26026667 136.26026667 0 0 1-131.95946667-103.2192c-1.36533333 0.17066667-2.59413333 0.8192-4.02773333 0.8192H68.26666667a34.13333333 34.13333333 0 0 1 0-68.26666667z m546.13333333 102.4a68.26666667 68.26666667 0 1 0-0.03413333-136.56746667A68.26666667 68.26666667 0 0 0 614.4 507.73333333zM68.26666667 535.6885333299999h154.9312c115.43893333 0 129.70666667 96.29013333 138.24 153.8048 7.13386667 48.5376 11.50293333 57.17333333 20.20693333 57.17333333h318.464c15.5648-20.61653333 40.07253333-34.13333333 67.8912-34.13333333a85.33333333 85.33333333 0 1 1-83.62666667 102.4h-302.72853333C310.95466667 814.93333333 300.68053333 745.472 293.888 699.4944c-10.0352-67.8912-19.2512-95.5392-70.69013333-95.5392H68.26666667a34.13333333 34.13333333 0 0 1 0-68.26666667z"  horiz-adv-x="1024" />

    
    </font>
</defs>
</svg>
